<mxfile host="app.diagrams.net" modified="2023-11-17T21:37:44.867Z" agent="Mozilla/5.0 (X11; Ubuntu; Linux x86_64; rv:109.0) Gecko/20100101 Firefox/116.0" etag="fNGyRDi7BFilGidy6coH" version="22.1.3" type="github">
  <diagram name="Página-1" id="EOyvnA3jSqvw11UCDNK6">
    <mxGraphModel dx="953" dy="568" grid="1" gridSize="12" guides="1" tooltips="1" connect="1" arrows="1" fold="1" page="1" pageScale="1" pageWidth="827" pageHeight="1169" math="0" shadow="0">
      <root>
        <mxCell id="0" />
        <mxCell id="1" parent="0" />
        <mxCell id="brW22e2zRMBlJNcKh5fx-15" value="" style="shape=table;startSize=0;container=1;collapsible=0;childLayout=tableLayout;strokeColor=#666666;fontSize=16;fillColor=#f5f5f5;fontColor=#333333;" parent="1" vertex="1">
          <mxGeometry x="190" y="290" width="1552" height="516" as="geometry" />
        </mxCell>
        <mxCell id="brW22e2zRMBlJNcKh5fx-16" value="" style="shape=tableRow;horizontal=0;startSize=0;swimlaneHead=0;swimlaneBody=0;strokeColor=inherit;top=0;left=0;bottom=0;right=0;collapsible=0;dropTarget=0;fillColor=none;points=[[0,0.5],[1,0.5]];portConstraint=eastwest;fontSize=16;" parent="brW22e2zRMBlJNcKh5fx-15" vertex="1">
          <mxGeometry width="1552" height="73" as="geometry" />
        </mxCell>
        <mxCell id="brW22e2zRMBlJNcKh5fx-34" value="&lt;b&gt;ProductoID&lt;/b&gt;" style="shape=partialRectangle;html=1;whiteSpace=wrap;connectable=0;strokeColor=#d6b656;overflow=hidden;fillColor=#fff2cc;top=0;left=0;bottom=0;right=0;pointerEvents=1;fontSize=16;" parent="brW22e2zRMBlJNcKh5fx-16" vertex="1">
          <mxGeometry width="194" height="73" as="geometry">
            <mxRectangle width="194" height="73" as="alternateBounds" />
          </mxGeometry>
        </mxCell>
        <mxCell id="brW22e2zRMBlJNcKh5fx-178" value="&lt;b&gt;Nombre &lt;/b&gt;" style="shape=partialRectangle;html=1;whiteSpace=wrap;connectable=0;strokeColor=#b85450;overflow=hidden;fillColor=#f8cecc;top=0;left=0;bottom=0;right=0;pointerEvents=1;fontSize=16;" parent="brW22e2zRMBlJNcKh5fx-16" vertex="1">
          <mxGeometry x="194" width="194" height="73" as="geometry">
            <mxRectangle width="194" height="73" as="alternateBounds" />
          </mxGeometry>
        </mxCell>
        <mxCell id="brW22e2zRMBlJNcKh5fx-168" value="&lt;b&gt;Categorías&lt;/b&gt;" style="shape=partialRectangle;html=1;whiteSpace=wrap;connectable=0;strokeColor=#d6b656;overflow=hidden;fillColor=#fff2cc;top=0;left=0;bottom=0;right=0;pointerEvents=1;fontSize=16;" parent="brW22e2zRMBlJNcKh5fx-16" vertex="1">
          <mxGeometry x="388" width="194" height="73" as="geometry">
            <mxRectangle width="194" height="73" as="alternateBounds" />
          </mxGeometry>
        </mxCell>
        <mxCell id="brW22e2zRMBlJNcKh5fx-158" value="&lt;b&gt;Precio&lt;/b&gt;" style="shape=partialRectangle;html=1;whiteSpace=wrap;connectable=0;strokeColor=#b85450;overflow=hidden;fillColor=#f8cecc;top=0;left=0;bottom=0;right=0;pointerEvents=1;fontSize=16;" parent="brW22e2zRMBlJNcKh5fx-16" vertex="1">
          <mxGeometry x="582" width="194" height="73" as="geometry">
            <mxRectangle width="194" height="73" as="alternateBounds" />
          </mxGeometry>
        </mxCell>
        <mxCell id="brW22e2zRMBlJNcKh5fx-148" value="&lt;b&gt;ClienteID&lt;/b&gt;" style="shape=partialRectangle;html=1;whiteSpace=wrap;connectable=0;strokeColor=#d6b656;overflow=hidden;fillColor=#fff2cc;top=0;left=0;bottom=0;right=0;pointerEvents=1;fontSize=16;" parent="brW22e2zRMBlJNcKh5fx-16" vertex="1">
          <mxGeometry x="776" width="194" height="73" as="geometry">
            <mxRectangle width="194" height="73" as="alternateBounds" />
          </mxGeometry>
        </mxCell>
        <mxCell id="brW22e2zRMBlJNcKh5fx-138" value="&lt;b&gt;Nombre Cliente&lt;/b&gt;" style="shape=partialRectangle;html=1;whiteSpace=wrap;connectable=0;strokeColor=#b85450;overflow=hidden;fillColor=#f8cecc;top=0;left=0;bottom=0;right=0;pointerEvents=1;fontSize=16;" parent="brW22e2zRMBlJNcKh5fx-16" vertex="1">
          <mxGeometry x="970" width="194" height="73" as="geometry">
            <mxRectangle width="194" height="73" as="alternateBounds" />
          </mxGeometry>
        </mxCell>
        <mxCell id="brW22e2zRMBlJNcKh5fx-31" value="&lt;b&gt;Calle&lt;/b&gt;" style="shape=partialRectangle;html=1;whiteSpace=wrap;connectable=0;strokeColor=#d6b656;overflow=hidden;fillColor=#fff2cc;top=0;left=0;bottom=0;right=0;pointerEvents=1;fontSize=16;" parent="brW22e2zRMBlJNcKh5fx-16" vertex="1">
          <mxGeometry x="1164" width="194" height="73" as="geometry">
            <mxRectangle width="194" height="73" as="alternateBounds" />
          </mxGeometry>
        </mxCell>
        <mxCell id="brW22e2zRMBlJNcKh5fx-188" value="&lt;b&gt;Ciudad&lt;/b&gt;" style="shape=partialRectangle;html=1;whiteSpace=wrap;connectable=0;strokeColor=#b85450;overflow=hidden;fillColor=#f8cecc;top=0;left=0;bottom=0;right=0;pointerEvents=1;fontSize=16;" parent="brW22e2zRMBlJNcKh5fx-16" vertex="1">
          <mxGeometry x="1358" width="194" height="73" as="geometry">
            <mxRectangle width="194" height="73" as="alternateBounds" />
          </mxGeometry>
        </mxCell>
        <mxCell id="brW22e2zRMBlJNcKh5fx-20" value="" style="shape=tableRow;horizontal=0;startSize=0;swimlaneHead=0;swimlaneBody=0;strokeColor=inherit;top=0;left=0;bottom=0;right=0;collapsible=0;dropTarget=0;fillColor=none;points=[[0,0.5],[1,0.5]];portConstraint=eastwest;fontSize=16;" parent="brW22e2zRMBlJNcKh5fx-15" vertex="1">
          <mxGeometry y="73" width="1552" height="75" as="geometry" />
        </mxCell>
        <mxCell id="brW22e2zRMBlJNcKh5fx-35" value="1" style="shape=partialRectangle;html=1;whiteSpace=wrap;connectable=0;strokeColor=inherit;overflow=hidden;fillColor=none;top=0;left=0;bottom=0;right=0;pointerEvents=1;fontSize=16;" parent="brW22e2zRMBlJNcKh5fx-20" vertex="1">
          <mxGeometry width="194" height="75" as="geometry">
            <mxRectangle width="194" height="75" as="alternateBounds" />
          </mxGeometry>
        </mxCell>
        <mxCell id="brW22e2zRMBlJNcKh5fx-179" value="LaptopHP" style="shape=partialRectangle;html=1;whiteSpace=wrap;connectable=0;strokeColor=inherit;overflow=hidden;fillColor=none;top=0;left=0;bottom=0;right=0;pointerEvents=1;fontSize=16;" parent="brW22e2zRMBlJNcKh5fx-20" vertex="1">
          <mxGeometry x="194" width="194" height="75" as="geometry">
            <mxRectangle width="194" height="75" as="alternateBounds" />
          </mxGeometry>
        </mxCell>
        <mxCell id="brW22e2zRMBlJNcKh5fx-169" value="Electrónicos" style="shape=partialRectangle;html=1;whiteSpace=wrap;connectable=0;strokeColor=inherit;overflow=hidden;fillColor=none;top=0;left=0;bottom=0;right=0;pointerEvents=1;fontSize=16;" parent="brW22e2zRMBlJNcKh5fx-20" vertex="1">
          <mxGeometry x="388" width="194" height="75" as="geometry">
            <mxRectangle width="194" height="75" as="alternateBounds" />
          </mxGeometry>
        </mxCell>
        <mxCell id="brW22e2zRMBlJNcKh5fx-159" value="800" style="shape=partialRectangle;html=1;whiteSpace=wrap;connectable=0;strokeColor=inherit;overflow=hidden;fillColor=none;top=0;left=0;bottom=0;right=0;pointerEvents=1;fontSize=16;" parent="brW22e2zRMBlJNcKh5fx-20" vertex="1">
          <mxGeometry x="582" width="194" height="75" as="geometry">
            <mxRectangle width="194" height="75" as="alternateBounds" />
          </mxGeometry>
        </mxCell>
        <mxCell id="brW22e2zRMBlJNcKh5fx-149" value="101" style="shape=partialRectangle;html=1;whiteSpace=wrap;connectable=0;strokeColor=inherit;overflow=hidden;fillColor=none;top=0;left=0;bottom=0;right=0;pointerEvents=1;fontSize=16;" parent="brW22e2zRMBlJNcKh5fx-20" vertex="1">
          <mxGeometry x="776" width="194" height="75" as="geometry">
            <mxRectangle width="194" height="75" as="alternateBounds" />
          </mxGeometry>
        </mxCell>
        <mxCell id="brW22e2zRMBlJNcKh5fx-139" value="Juan" style="shape=partialRectangle;html=1;whiteSpace=wrap;connectable=0;strokeColor=inherit;overflow=hidden;fillColor=none;top=0;left=0;bottom=0;right=0;pointerEvents=1;fontSize=16;" parent="brW22e2zRMBlJNcKh5fx-20" vertex="1">
          <mxGeometry x="970" width="194" height="75" as="geometry">
            <mxRectangle width="194" height="75" as="alternateBounds" />
          </mxGeometry>
        </mxCell>
        <mxCell id="brW22e2zRMBlJNcKh5fx-32" value="Calle 1" style="shape=partialRectangle;html=1;whiteSpace=wrap;connectable=0;strokeColor=inherit;overflow=hidden;fillColor=none;top=0;left=0;bottom=0;right=0;pointerEvents=1;fontSize=16;" parent="brW22e2zRMBlJNcKh5fx-20" vertex="1">
          <mxGeometry x="1164" width="194" height="75" as="geometry">
            <mxRectangle width="194" height="75" as="alternateBounds" />
          </mxGeometry>
        </mxCell>
        <mxCell id="brW22e2zRMBlJNcKh5fx-189" value="Ciudad A" style="shape=partialRectangle;html=1;whiteSpace=wrap;connectable=0;strokeColor=inherit;overflow=hidden;fillColor=none;top=0;left=0;bottom=0;right=0;pointerEvents=1;fontSize=16;" parent="brW22e2zRMBlJNcKh5fx-20" vertex="1">
          <mxGeometry x="1358" width="194" height="75" as="geometry">
            <mxRectangle width="194" height="75" as="alternateBounds" />
          </mxGeometry>
        </mxCell>
        <mxCell id="brW22e2zRMBlJNcKh5fx-67" style="shape=tableRow;horizontal=0;startSize=0;swimlaneHead=0;swimlaneBody=0;strokeColor=inherit;top=0;left=0;bottom=0;right=0;collapsible=0;dropTarget=0;fillColor=none;points=[[0,0.5],[1,0.5]];portConstraint=eastwest;fontSize=16;" parent="brW22e2zRMBlJNcKh5fx-15" vertex="1">
          <mxGeometry y="148" width="1552" height="74" as="geometry" />
        </mxCell>
        <mxCell id="brW22e2zRMBlJNcKh5fx-68" value="1" style="shape=partialRectangle;html=1;whiteSpace=wrap;connectable=0;strokeColor=inherit;overflow=hidden;fillColor=none;top=0;left=0;bottom=0;right=0;pointerEvents=1;fontSize=16;" parent="brW22e2zRMBlJNcKh5fx-67" vertex="1">
          <mxGeometry width="194" height="74" as="geometry">
            <mxRectangle width="194" height="74" as="alternateBounds" />
          </mxGeometry>
        </mxCell>
        <mxCell id="brW22e2zRMBlJNcKh5fx-180" value="LaptopHP" style="shape=partialRectangle;html=1;whiteSpace=wrap;connectable=0;strokeColor=inherit;overflow=hidden;fillColor=none;top=0;left=0;bottom=0;right=0;pointerEvents=1;fontSize=16;" parent="brW22e2zRMBlJNcKh5fx-67" vertex="1">
          <mxGeometry x="194" width="194" height="74" as="geometry">
            <mxRectangle width="194" height="74" as="alternateBounds" />
          </mxGeometry>
        </mxCell>
        <mxCell id="brW22e2zRMBlJNcKh5fx-170" value="Informática" style="shape=partialRectangle;html=1;whiteSpace=wrap;connectable=0;strokeColor=inherit;overflow=hidden;fillColor=none;top=0;left=0;bottom=0;right=0;pointerEvents=1;fontSize=16;" parent="brW22e2zRMBlJNcKh5fx-67" vertex="1">
          <mxGeometry x="388" width="194" height="74" as="geometry">
            <mxRectangle width="194" height="74" as="alternateBounds" />
          </mxGeometry>
        </mxCell>
        <mxCell id="brW22e2zRMBlJNcKh5fx-160" value="800" style="shape=partialRectangle;html=1;whiteSpace=wrap;connectable=0;strokeColor=inherit;overflow=hidden;fillColor=none;top=0;left=0;bottom=0;right=0;pointerEvents=1;fontSize=16;" parent="brW22e2zRMBlJNcKh5fx-67" vertex="1">
          <mxGeometry x="582" width="194" height="74" as="geometry">
            <mxRectangle width="194" height="74" as="alternateBounds" />
          </mxGeometry>
        </mxCell>
        <mxCell id="brW22e2zRMBlJNcKh5fx-150" value="101" style="shape=partialRectangle;html=1;whiteSpace=wrap;connectable=0;strokeColor=inherit;overflow=hidden;fillColor=none;top=0;left=0;bottom=0;right=0;pointerEvents=1;fontSize=16;" parent="brW22e2zRMBlJNcKh5fx-67" vertex="1">
          <mxGeometry x="776" width="194" height="74" as="geometry">
            <mxRectangle width="194" height="74" as="alternateBounds" />
          </mxGeometry>
        </mxCell>
        <mxCell id="brW22e2zRMBlJNcKh5fx-140" value="Juan" style="shape=partialRectangle;html=1;whiteSpace=wrap;connectable=0;strokeColor=inherit;overflow=hidden;fillColor=none;top=0;left=0;bottom=0;right=0;pointerEvents=1;fontSize=16;" parent="brW22e2zRMBlJNcKh5fx-67" vertex="1">
          <mxGeometry x="970" width="194" height="74" as="geometry">
            <mxRectangle width="194" height="74" as="alternateBounds" />
          </mxGeometry>
        </mxCell>
        <mxCell id="brW22e2zRMBlJNcKh5fx-69" value="Calle 2" style="shape=partialRectangle;html=1;whiteSpace=wrap;connectable=0;strokeColor=inherit;overflow=hidden;fillColor=none;top=0;left=0;bottom=0;right=0;pointerEvents=1;fontSize=16;" parent="brW22e2zRMBlJNcKh5fx-67" vertex="1">
          <mxGeometry x="1164" width="194" height="74" as="geometry">
            <mxRectangle width="194" height="74" as="alternateBounds" />
          </mxGeometry>
        </mxCell>
        <mxCell id="brW22e2zRMBlJNcKh5fx-190" value="Ciudad A" style="shape=partialRectangle;html=1;whiteSpace=wrap;connectable=0;strokeColor=inherit;overflow=hidden;fillColor=none;top=0;left=0;bottom=0;right=0;pointerEvents=1;fontSize=16;" parent="brW22e2zRMBlJNcKh5fx-67" vertex="1">
          <mxGeometry x="1358" width="194" height="74" as="geometry">
            <mxRectangle width="194" height="74" as="alternateBounds" />
          </mxGeometry>
        </mxCell>
        <mxCell id="brW22e2zRMBlJNcKh5fx-75" style="shape=tableRow;horizontal=0;startSize=0;swimlaneHead=0;swimlaneBody=0;strokeColor=inherit;top=0;left=0;bottom=0;right=0;collapsible=0;dropTarget=0;fillColor=none;points=[[0,0.5],[1,0.5]];portConstraint=eastwest;fontSize=16;" parent="brW22e2zRMBlJNcKh5fx-15" vertex="1">
          <mxGeometry y="222" width="1552" height="73" as="geometry" />
        </mxCell>
        <mxCell id="brW22e2zRMBlJNcKh5fx-76" value="2" style="shape=partialRectangle;html=1;whiteSpace=wrap;connectable=0;strokeColor=inherit;overflow=hidden;fillColor=none;top=0;left=0;bottom=0;right=0;pointerEvents=1;fontSize=16;" parent="brW22e2zRMBlJNcKh5fx-75" vertex="1">
          <mxGeometry width="194" height="73" as="geometry">
            <mxRectangle width="194" height="73" as="alternateBounds" />
          </mxGeometry>
        </mxCell>
        <mxCell id="brW22e2zRMBlJNcKh5fx-181" value="Camiseta Nike" style="shape=partialRectangle;html=1;whiteSpace=wrap;connectable=0;strokeColor=inherit;overflow=hidden;fillColor=none;top=0;left=0;bottom=0;right=0;pointerEvents=1;fontSize=16;" parent="brW22e2zRMBlJNcKh5fx-75" vertex="1">
          <mxGeometry x="194" width="194" height="73" as="geometry">
            <mxRectangle width="194" height="73" as="alternateBounds" />
          </mxGeometry>
        </mxCell>
        <mxCell id="brW22e2zRMBlJNcKh5fx-171" value="Ropa" style="shape=partialRectangle;html=1;whiteSpace=wrap;connectable=0;strokeColor=inherit;overflow=hidden;fillColor=none;top=0;left=0;bottom=0;right=0;pointerEvents=1;fontSize=16;" parent="brW22e2zRMBlJNcKh5fx-75" vertex="1">
          <mxGeometry x="388" width="194" height="73" as="geometry">
            <mxRectangle width="194" height="73" as="alternateBounds" />
          </mxGeometry>
        </mxCell>
        <mxCell id="brW22e2zRMBlJNcKh5fx-161" value="30" style="shape=partialRectangle;html=1;whiteSpace=wrap;connectable=0;strokeColor=inherit;overflow=hidden;fillColor=none;top=0;left=0;bottom=0;right=0;pointerEvents=1;fontSize=16;" parent="brW22e2zRMBlJNcKh5fx-75" vertex="1">
          <mxGeometry x="582" width="194" height="73" as="geometry">
            <mxRectangle width="194" height="73" as="alternateBounds" />
          </mxGeometry>
        </mxCell>
        <mxCell id="brW22e2zRMBlJNcKh5fx-151" value="102" style="shape=partialRectangle;html=1;whiteSpace=wrap;connectable=0;strokeColor=inherit;overflow=hidden;fillColor=none;top=0;left=0;bottom=0;right=0;pointerEvents=1;fontSize=16;" parent="brW22e2zRMBlJNcKh5fx-75" vertex="1">
          <mxGeometry x="776" width="194" height="73" as="geometry">
            <mxRectangle width="194" height="73" as="alternateBounds" />
          </mxGeometry>
        </mxCell>
        <mxCell id="brW22e2zRMBlJNcKh5fx-141" value="María" style="shape=partialRectangle;html=1;whiteSpace=wrap;connectable=0;strokeColor=inherit;overflow=hidden;fillColor=none;top=0;left=0;bottom=0;right=0;pointerEvents=1;fontSize=16;" parent="brW22e2zRMBlJNcKh5fx-75" vertex="1">
          <mxGeometry x="970" width="194" height="73" as="geometry">
            <mxRectangle width="194" height="73" as="alternateBounds" />
          </mxGeometry>
        </mxCell>
        <mxCell id="brW22e2zRMBlJNcKh5fx-77" value="Calle 3" style="shape=partialRectangle;html=1;whiteSpace=wrap;connectable=0;strokeColor=inherit;overflow=hidden;fillColor=none;top=0;left=0;bottom=0;right=0;pointerEvents=1;fontSize=16;" parent="brW22e2zRMBlJNcKh5fx-75" vertex="1">
          <mxGeometry x="1164" width="194" height="73" as="geometry">
            <mxRectangle width="194" height="73" as="alternateBounds" />
          </mxGeometry>
        </mxCell>
        <mxCell id="brW22e2zRMBlJNcKh5fx-191" value="Ciudad B" style="shape=partialRectangle;html=1;whiteSpace=wrap;connectable=0;strokeColor=inherit;overflow=hidden;fillColor=none;top=0;left=0;bottom=0;right=0;pointerEvents=1;fontSize=16;" parent="brW22e2zRMBlJNcKh5fx-75" vertex="1">
          <mxGeometry x="1358" width="194" height="73" as="geometry">
            <mxRectangle width="194" height="73" as="alternateBounds" />
          </mxGeometry>
        </mxCell>
        <mxCell id="brW22e2zRMBlJNcKh5fx-83" style="shape=tableRow;horizontal=0;startSize=0;swimlaneHead=0;swimlaneBody=0;strokeColor=inherit;top=0;left=0;bottom=0;right=0;collapsible=0;dropTarget=0;fillColor=none;points=[[0,0.5],[1,0.5]];portConstraint=eastwest;fontSize=16;" parent="brW22e2zRMBlJNcKh5fx-15" vertex="1">
          <mxGeometry y="295" width="1552" height="73" as="geometry" />
        </mxCell>
        <mxCell id="brW22e2zRMBlJNcKh5fx-84" value="2" style="shape=partialRectangle;html=1;whiteSpace=wrap;connectable=0;strokeColor=inherit;overflow=hidden;fillColor=none;top=0;left=0;bottom=0;right=0;pointerEvents=1;fontSize=16;" parent="brW22e2zRMBlJNcKh5fx-83" vertex="1">
          <mxGeometry width="194" height="73" as="geometry">
            <mxRectangle width="194" height="73" as="alternateBounds" />
          </mxGeometry>
        </mxCell>
        <mxCell id="brW22e2zRMBlJNcKh5fx-182" value="Camiseta Nike" style="shape=partialRectangle;html=1;whiteSpace=wrap;connectable=0;strokeColor=inherit;overflow=hidden;fillColor=none;top=0;left=0;bottom=0;right=0;pointerEvents=1;fontSize=16;" parent="brW22e2zRMBlJNcKh5fx-83" vertex="1">
          <mxGeometry x="194" width="194" height="73" as="geometry">
            <mxRectangle width="194" height="73" as="alternateBounds" />
          </mxGeometry>
        </mxCell>
        <mxCell id="brW22e2zRMBlJNcKh5fx-172" value="Deportes" style="shape=partialRectangle;html=1;whiteSpace=wrap;connectable=0;strokeColor=inherit;overflow=hidden;fillColor=none;top=0;left=0;bottom=0;right=0;pointerEvents=1;fontSize=16;" parent="brW22e2zRMBlJNcKh5fx-83" vertex="1">
          <mxGeometry x="388" width="194" height="73" as="geometry">
            <mxRectangle width="194" height="73" as="alternateBounds" />
          </mxGeometry>
        </mxCell>
        <mxCell id="brW22e2zRMBlJNcKh5fx-162" value="30" style="shape=partialRectangle;html=1;whiteSpace=wrap;connectable=0;strokeColor=inherit;overflow=hidden;fillColor=none;top=0;left=0;bottom=0;right=0;pointerEvents=1;fontSize=16;" parent="brW22e2zRMBlJNcKh5fx-83" vertex="1">
          <mxGeometry x="582" width="194" height="73" as="geometry">
            <mxRectangle width="194" height="73" as="alternateBounds" />
          </mxGeometry>
        </mxCell>
        <mxCell id="brW22e2zRMBlJNcKh5fx-152" value="102" style="shape=partialRectangle;html=1;whiteSpace=wrap;connectable=0;strokeColor=inherit;overflow=hidden;fillColor=none;top=0;left=0;bottom=0;right=0;pointerEvents=1;fontSize=16;" parent="brW22e2zRMBlJNcKh5fx-83" vertex="1">
          <mxGeometry x="776" width="194" height="73" as="geometry">
            <mxRectangle width="194" height="73" as="alternateBounds" />
          </mxGeometry>
        </mxCell>
        <mxCell id="brW22e2zRMBlJNcKh5fx-142" value="María" style="shape=partialRectangle;html=1;whiteSpace=wrap;connectable=0;strokeColor=inherit;overflow=hidden;fillColor=none;top=0;left=0;bottom=0;right=0;pointerEvents=1;fontSize=16;" parent="brW22e2zRMBlJNcKh5fx-83" vertex="1">
          <mxGeometry x="970" width="194" height="73" as="geometry">
            <mxRectangle width="194" height="73" as="alternateBounds" />
          </mxGeometry>
        </mxCell>
        <mxCell id="brW22e2zRMBlJNcKh5fx-85" value="Calle 3" style="shape=partialRectangle;html=1;whiteSpace=wrap;connectable=0;strokeColor=inherit;overflow=hidden;fillColor=none;top=0;left=0;bottom=0;right=0;pointerEvents=1;fontSize=16;" parent="brW22e2zRMBlJNcKh5fx-83" vertex="1">
          <mxGeometry x="1164" width="194" height="73" as="geometry">
            <mxRectangle width="194" height="73" as="alternateBounds" />
          </mxGeometry>
        </mxCell>
        <mxCell id="brW22e2zRMBlJNcKh5fx-192" value="Ciudad B" style="shape=partialRectangle;html=1;whiteSpace=wrap;connectable=0;strokeColor=inherit;overflow=hidden;fillColor=none;top=0;left=0;bottom=0;right=0;pointerEvents=1;fontSize=16;" parent="brW22e2zRMBlJNcKh5fx-83" vertex="1">
          <mxGeometry x="1358" width="194" height="73" as="geometry">
            <mxRectangle width="194" height="73" as="alternateBounds" />
          </mxGeometry>
        </mxCell>
        <mxCell id="brW22e2zRMBlJNcKh5fx-91" style="shape=tableRow;horizontal=0;startSize=0;swimlaneHead=0;swimlaneBody=0;strokeColor=inherit;top=0;left=0;bottom=0;right=0;collapsible=0;dropTarget=0;fillColor=none;points=[[0,0.5],[1,0.5]];portConstraint=eastwest;fontSize=16;" parent="brW22e2zRMBlJNcKh5fx-15" vertex="1">
          <mxGeometry y="368" width="1552" height="74" as="geometry" />
        </mxCell>
        <mxCell id="brW22e2zRMBlJNcKh5fx-92" value="3" style="shape=partialRectangle;html=1;whiteSpace=wrap;connectable=0;strokeColor=inherit;overflow=hidden;fillColor=none;top=0;left=0;bottom=0;right=0;pointerEvents=1;fontSize=16;" parent="brW22e2zRMBlJNcKh5fx-91" vertex="1">
          <mxGeometry width="194" height="74" as="geometry">
            <mxRectangle width="194" height="74" as="alternateBounds" />
          </mxGeometry>
        </mxCell>
        <mxCell id="brW22e2zRMBlJNcKh5fx-183" value="Libro &quot;Dune&quot;" style="shape=partialRectangle;html=1;whiteSpace=wrap;connectable=0;strokeColor=inherit;overflow=hidden;fillColor=none;top=0;left=0;bottom=0;right=0;pointerEvents=1;fontSize=16;" parent="brW22e2zRMBlJNcKh5fx-91" vertex="1">
          <mxGeometry x="194" width="194" height="74" as="geometry">
            <mxRectangle width="194" height="74" as="alternateBounds" />
          </mxGeometry>
        </mxCell>
        <mxCell id="brW22e2zRMBlJNcKh5fx-173" value="Libros" style="shape=partialRectangle;html=1;whiteSpace=wrap;connectable=0;strokeColor=inherit;overflow=hidden;fillColor=none;top=0;left=0;bottom=0;right=0;pointerEvents=1;fontSize=16;" parent="brW22e2zRMBlJNcKh5fx-91" vertex="1">
          <mxGeometry x="388" width="194" height="74" as="geometry">
            <mxRectangle width="194" height="74" as="alternateBounds" />
          </mxGeometry>
        </mxCell>
        <mxCell id="brW22e2zRMBlJNcKh5fx-163" value="20" style="shape=partialRectangle;html=1;whiteSpace=wrap;connectable=0;strokeColor=inherit;overflow=hidden;fillColor=none;top=0;left=0;bottom=0;right=0;pointerEvents=1;fontSize=16;" parent="brW22e2zRMBlJNcKh5fx-91" vertex="1">
          <mxGeometry x="582" width="194" height="74" as="geometry">
            <mxRectangle width="194" height="74" as="alternateBounds" />
          </mxGeometry>
        </mxCell>
        <mxCell id="brW22e2zRMBlJNcKh5fx-153" value="101" style="shape=partialRectangle;html=1;whiteSpace=wrap;connectable=0;strokeColor=inherit;overflow=hidden;fillColor=none;top=0;left=0;bottom=0;right=0;pointerEvents=1;fontSize=16;" parent="brW22e2zRMBlJNcKh5fx-91" vertex="1">
          <mxGeometry x="776" width="194" height="74" as="geometry">
            <mxRectangle width="194" height="74" as="alternateBounds" />
          </mxGeometry>
        </mxCell>
        <mxCell id="brW22e2zRMBlJNcKh5fx-143" value="Juan" style="shape=partialRectangle;html=1;whiteSpace=wrap;connectable=0;strokeColor=inherit;overflow=hidden;fillColor=none;top=0;left=0;bottom=0;right=0;pointerEvents=1;fontSize=16;" parent="brW22e2zRMBlJNcKh5fx-91" vertex="1">
          <mxGeometry x="970" width="194" height="74" as="geometry">
            <mxRectangle width="194" height="74" as="alternateBounds" />
          </mxGeometry>
        </mxCell>
        <mxCell id="brW22e2zRMBlJNcKh5fx-93" value="Calle 1" style="shape=partialRectangle;html=1;whiteSpace=wrap;connectable=0;strokeColor=inherit;overflow=hidden;fillColor=none;top=0;left=0;bottom=0;right=0;pointerEvents=1;fontSize=16;" parent="brW22e2zRMBlJNcKh5fx-91" vertex="1">
          <mxGeometry x="1164" width="194" height="74" as="geometry">
            <mxRectangle width="194" height="74" as="alternateBounds" />
          </mxGeometry>
        </mxCell>
        <mxCell id="brW22e2zRMBlJNcKh5fx-193" value="Ciudad A" style="shape=partialRectangle;html=1;whiteSpace=wrap;connectable=0;strokeColor=inherit;overflow=hidden;fillColor=none;top=0;left=0;bottom=0;right=0;pointerEvents=1;fontSize=16;" parent="brW22e2zRMBlJNcKh5fx-91" vertex="1">
          <mxGeometry x="1358" width="194" height="74" as="geometry">
            <mxRectangle width="194" height="74" as="alternateBounds" />
          </mxGeometry>
        </mxCell>
        <mxCell id="brW22e2zRMBlJNcKh5fx-99" style="shape=tableRow;horizontal=0;startSize=0;swimlaneHead=0;swimlaneBody=0;strokeColor=inherit;top=0;left=0;bottom=0;right=0;collapsible=0;dropTarget=0;fillColor=none;points=[[0,0.5],[1,0.5]];portConstraint=eastwest;fontSize=16;" parent="brW22e2zRMBlJNcKh5fx-15" vertex="1">
          <mxGeometry y="442" width="1552" height="74" as="geometry" />
        </mxCell>
        <mxCell id="brW22e2zRMBlJNcKh5fx-100" value="3" style="shape=partialRectangle;html=1;whiteSpace=wrap;connectable=0;strokeColor=inherit;overflow=hidden;fillColor=none;top=0;left=0;bottom=0;right=0;pointerEvents=1;fontSize=16;" parent="brW22e2zRMBlJNcKh5fx-99" vertex="1">
          <mxGeometry width="194" height="74" as="geometry">
            <mxRectangle width="194" height="74" as="alternateBounds" />
          </mxGeometry>
        </mxCell>
        <mxCell id="brW22e2zRMBlJNcKh5fx-184" value="Libro &quot;Dune&quot;" style="shape=partialRectangle;html=1;whiteSpace=wrap;connectable=0;strokeColor=inherit;overflow=hidden;fillColor=none;top=0;left=0;bottom=0;right=0;pointerEvents=1;fontSize=16;" parent="brW22e2zRMBlJNcKh5fx-99" vertex="1">
          <mxGeometry x="194" width="194" height="74" as="geometry">
            <mxRectangle width="194" height="74" as="alternateBounds" />
          </mxGeometry>
        </mxCell>
        <mxCell id="brW22e2zRMBlJNcKh5fx-174" value="Ciencia Ficción" style="shape=partialRectangle;html=1;whiteSpace=wrap;connectable=0;strokeColor=inherit;overflow=hidden;fillColor=none;top=0;left=0;bottom=0;right=0;pointerEvents=1;fontSize=16;" parent="brW22e2zRMBlJNcKh5fx-99" vertex="1">
          <mxGeometry x="388" width="194" height="74" as="geometry">
            <mxRectangle width="194" height="74" as="alternateBounds" />
          </mxGeometry>
        </mxCell>
        <mxCell id="brW22e2zRMBlJNcKh5fx-164" value="20" style="shape=partialRectangle;html=1;whiteSpace=wrap;connectable=0;strokeColor=inherit;overflow=hidden;fillColor=none;top=0;left=0;bottom=0;right=0;pointerEvents=1;fontSize=16;" parent="brW22e2zRMBlJNcKh5fx-99" vertex="1">
          <mxGeometry x="582" width="194" height="74" as="geometry">
            <mxRectangle width="194" height="74" as="alternateBounds" />
          </mxGeometry>
        </mxCell>
        <mxCell id="brW22e2zRMBlJNcKh5fx-154" value="101" style="shape=partialRectangle;html=1;whiteSpace=wrap;connectable=0;strokeColor=inherit;overflow=hidden;fillColor=none;top=0;left=0;bottom=0;right=0;pointerEvents=1;fontSize=16;" parent="brW22e2zRMBlJNcKh5fx-99" vertex="1">
          <mxGeometry x="776" width="194" height="74" as="geometry">
            <mxRectangle width="194" height="74" as="alternateBounds" />
          </mxGeometry>
        </mxCell>
        <mxCell id="brW22e2zRMBlJNcKh5fx-144" value="Juan" style="shape=partialRectangle;html=1;whiteSpace=wrap;connectable=0;strokeColor=inherit;overflow=hidden;fillColor=none;top=0;left=0;bottom=0;right=0;pointerEvents=1;fontSize=16;" parent="brW22e2zRMBlJNcKh5fx-99" vertex="1">
          <mxGeometry x="970" width="194" height="74" as="geometry">
            <mxRectangle width="194" height="74" as="alternateBounds" />
          </mxGeometry>
        </mxCell>
        <mxCell id="brW22e2zRMBlJNcKh5fx-101" value="Calle 1" style="shape=partialRectangle;html=1;whiteSpace=wrap;connectable=0;strokeColor=inherit;overflow=hidden;fillColor=none;top=0;left=0;bottom=0;right=0;pointerEvents=1;fontSize=16;" parent="brW22e2zRMBlJNcKh5fx-99" vertex="1">
          <mxGeometry x="1164" width="194" height="74" as="geometry">
            <mxRectangle width="194" height="74" as="alternateBounds" />
          </mxGeometry>
        </mxCell>
        <mxCell id="brW22e2zRMBlJNcKh5fx-194" value="Ciudad A" style="shape=partialRectangle;html=1;whiteSpace=wrap;connectable=0;strokeColor=inherit;overflow=hidden;fillColor=none;top=0;left=0;bottom=0;right=0;pointerEvents=1;fontSize=16;" parent="brW22e2zRMBlJNcKh5fx-99" vertex="1">
          <mxGeometry x="1358" width="194" height="74" as="geometry">
            <mxRectangle width="194" height="74" as="alternateBounds" />
          </mxGeometry>
        </mxCell>
        <mxCell id="brW22e2zRMBlJNcKh5fx-198" value="&lt;b&gt;&lt;font style=&quot;font-size: 48px;&quot;&gt;1FN&lt;/font&gt;&lt;/b&gt;" style="text;html=1;align=center;verticalAlign=middle;resizable=0;points=[];autosize=1;strokeColor=none;fillColor=none;" parent="1" vertex="1">
          <mxGeometry x="170" y="150" width="110" height="70" as="geometry" />
        </mxCell>
        <mxCell id="s3DEbMEIwhYJtTjX-OK3-1" value="&lt;b&gt;&lt;font style=&quot;font-size: 48px;&quot;&gt;2FN&lt;/font&gt;&lt;/b&gt;" style="text;html=1;align=center;verticalAlign=middle;resizable=0;points=[];autosize=1;strokeColor=none;fillColor=none;" parent="1" vertex="1">
          <mxGeometry x="142" y="890" width="110" height="70" as="geometry" />
        </mxCell>
        <mxCell id="s3DEbMEIwhYJtTjX-OK3-2" value="" style="shape=table;startSize=0;container=1;collapsible=0;childLayout=tableLayout;strokeColor=#666666;fontSize=16;fillColor=#f5f5f5;fontColor=#333333;" parent="1" vertex="1">
          <mxGeometry x="170" y="1040" width="1552" height="516" as="geometry" />
        </mxCell>
        <mxCell id="s3DEbMEIwhYJtTjX-OK3-3" value="" style="shape=tableRow;horizontal=0;startSize=0;swimlaneHead=0;swimlaneBody=0;strokeColor=inherit;top=0;left=0;bottom=0;right=0;collapsible=0;dropTarget=0;fillColor=none;points=[[0,0.5],[1,0.5]];portConstraint=eastwest;fontSize=16;" parent="s3DEbMEIwhYJtTjX-OK3-2" vertex="1">
          <mxGeometry width="1552" height="73" as="geometry" />
        </mxCell>
        <mxCell id="s3DEbMEIwhYJtTjX-OK3-4" value="&lt;b&gt;ProductoID&lt;/b&gt;" style="shape=partialRectangle;html=1;whiteSpace=wrap;connectable=0;strokeColor=#d6b656;overflow=hidden;fillColor=#fff2cc;top=0;left=0;bottom=0;right=0;pointerEvents=1;fontSize=16;" parent="s3DEbMEIwhYJtTjX-OK3-3" vertex="1">
          <mxGeometry width="194" height="73" as="geometry">
            <mxRectangle width="194" height="73" as="alternateBounds" />
          </mxGeometry>
        </mxCell>
        <mxCell id="s3DEbMEIwhYJtTjX-OK3-5" value="&lt;b&gt;NombreProducto&lt;/b&gt;" style="shape=partialRectangle;html=1;whiteSpace=wrap;connectable=0;strokeColor=#b85450;overflow=hidden;fillColor=#f8cecc;top=0;left=0;bottom=0;right=0;pointerEvents=1;fontSize=16;" parent="s3DEbMEIwhYJtTjX-OK3-3" vertex="1">
          <mxGeometry x="194" width="194" height="73" as="geometry">
            <mxRectangle width="194" height="73" as="alternateBounds" />
          </mxGeometry>
        </mxCell>
        <mxCell id="s3DEbMEIwhYJtTjX-OK3-6" value="&lt;b&gt;Categorías&lt;/b&gt;" style="shape=partialRectangle;html=1;whiteSpace=wrap;connectable=0;strokeColor=#d6b656;overflow=hidden;fillColor=#fff2cc;top=0;left=0;bottom=0;right=0;pointerEvents=1;fontSize=16;" parent="s3DEbMEIwhYJtTjX-OK3-3" vertex="1">
          <mxGeometry x="388" width="194" height="73" as="geometry">
            <mxRectangle width="194" height="73" as="alternateBounds" />
          </mxGeometry>
        </mxCell>
        <mxCell id="s3DEbMEIwhYJtTjX-OK3-7" value="&lt;b&gt;Precio&lt;/b&gt;" style="shape=partialRectangle;html=1;whiteSpace=wrap;connectable=0;strokeColor=#b85450;overflow=hidden;fillColor=#f8cecc;top=0;left=0;bottom=0;right=0;pointerEvents=1;fontSize=16;" parent="s3DEbMEIwhYJtTjX-OK3-3" vertex="1">
          <mxGeometry x="582" width="194" height="73" as="geometry">
            <mxRectangle width="194" height="73" as="alternateBounds" />
          </mxGeometry>
        </mxCell>
        <mxCell id="s3DEbMEIwhYJtTjX-OK3-8" value="&lt;b&gt;ClienteID&lt;/b&gt;" style="shape=partialRectangle;html=1;whiteSpace=wrap;connectable=0;strokeColor=#d6b656;overflow=hidden;fillColor=#fff2cc;top=0;left=0;bottom=0;right=0;pointerEvents=1;fontSize=16;" parent="s3DEbMEIwhYJtTjX-OK3-3" vertex="1">
          <mxGeometry x="776" width="194" height="73" as="geometry">
            <mxRectangle width="194" height="73" as="alternateBounds" />
          </mxGeometry>
        </mxCell>
        <mxCell id="s3DEbMEIwhYJtTjX-OK3-9" value="&lt;b&gt;Nombre Cliente&lt;/b&gt;" style="shape=partialRectangle;html=1;whiteSpace=wrap;connectable=0;strokeColor=#b85450;overflow=hidden;fillColor=#f8cecc;top=0;left=0;bottom=0;right=0;pointerEvents=1;fontSize=16;" parent="s3DEbMEIwhYJtTjX-OK3-3" vertex="1">
          <mxGeometry x="970" width="194" height="73" as="geometry">
            <mxRectangle width="194" height="73" as="alternateBounds" />
          </mxGeometry>
        </mxCell>
        <mxCell id="s3DEbMEIwhYJtTjX-OK3-10" value="&lt;b&gt;Calle&lt;/b&gt;" style="shape=partialRectangle;html=1;whiteSpace=wrap;connectable=0;strokeColor=#d6b656;overflow=hidden;fillColor=#fff2cc;top=0;left=0;bottom=0;right=0;pointerEvents=1;fontSize=16;" parent="s3DEbMEIwhYJtTjX-OK3-3" vertex="1">
          <mxGeometry x="1164" width="194" height="73" as="geometry">
            <mxRectangle width="194" height="73" as="alternateBounds" />
          </mxGeometry>
        </mxCell>
        <mxCell id="s3DEbMEIwhYJtTjX-OK3-11" value="&lt;b&gt;Ciudad&lt;/b&gt;" style="shape=partialRectangle;html=1;whiteSpace=wrap;connectable=0;strokeColor=#b85450;overflow=hidden;fillColor=#f8cecc;top=0;left=0;bottom=0;right=0;pointerEvents=1;fontSize=16;" parent="s3DEbMEIwhYJtTjX-OK3-3" vertex="1">
          <mxGeometry x="1358" width="194" height="73" as="geometry">
            <mxRectangle width="194" height="73" as="alternateBounds" />
          </mxGeometry>
        </mxCell>
        <mxCell id="s3DEbMEIwhYJtTjX-OK3-12" value="" style="shape=tableRow;horizontal=0;startSize=0;swimlaneHead=0;swimlaneBody=0;strokeColor=inherit;top=0;left=0;bottom=0;right=0;collapsible=0;dropTarget=0;fillColor=none;points=[[0,0.5],[1,0.5]];portConstraint=eastwest;fontSize=16;" parent="s3DEbMEIwhYJtTjX-OK3-2" vertex="1">
          <mxGeometry y="73" width="1552" height="75" as="geometry" />
        </mxCell>
        <mxCell id="s3DEbMEIwhYJtTjX-OK3-13" value="1" style="shape=partialRectangle;html=1;whiteSpace=wrap;connectable=0;strokeColor=inherit;overflow=hidden;fillColor=none;top=0;left=0;bottom=0;right=0;pointerEvents=1;fontSize=16;" parent="s3DEbMEIwhYJtTjX-OK3-12" vertex="1">
          <mxGeometry width="194" height="75" as="geometry">
            <mxRectangle width="194" height="75" as="alternateBounds" />
          </mxGeometry>
        </mxCell>
        <mxCell id="s3DEbMEIwhYJtTjX-OK3-14" value="LaptopHP" style="shape=partialRectangle;html=1;whiteSpace=wrap;connectable=0;strokeColor=inherit;overflow=hidden;fillColor=none;top=0;left=0;bottom=0;right=0;pointerEvents=1;fontSize=16;" parent="s3DEbMEIwhYJtTjX-OK3-12" vertex="1">
          <mxGeometry x="194" width="194" height="75" as="geometry">
            <mxRectangle width="194" height="75" as="alternateBounds" />
          </mxGeometry>
        </mxCell>
        <mxCell id="s3DEbMEIwhYJtTjX-OK3-15" value="Electrónicos" style="shape=partialRectangle;html=1;whiteSpace=wrap;connectable=0;strokeColor=inherit;overflow=hidden;fillColor=none;top=0;left=0;bottom=0;right=0;pointerEvents=1;fontSize=16;" parent="s3DEbMEIwhYJtTjX-OK3-12" vertex="1">
          <mxGeometry x="388" width="194" height="75" as="geometry">
            <mxRectangle width="194" height="75" as="alternateBounds" />
          </mxGeometry>
        </mxCell>
        <mxCell id="s3DEbMEIwhYJtTjX-OK3-16" value="800" style="shape=partialRectangle;html=1;whiteSpace=wrap;connectable=0;strokeColor=inherit;overflow=hidden;fillColor=none;top=0;left=0;bottom=0;right=0;pointerEvents=1;fontSize=16;" parent="s3DEbMEIwhYJtTjX-OK3-12" vertex="1">
          <mxGeometry x="582" width="194" height="75" as="geometry">
            <mxRectangle width="194" height="75" as="alternateBounds" />
          </mxGeometry>
        </mxCell>
        <mxCell id="s3DEbMEIwhYJtTjX-OK3-17" value="101" style="shape=partialRectangle;html=1;whiteSpace=wrap;connectable=0;strokeColor=inherit;overflow=hidden;fillColor=none;top=0;left=0;bottom=0;right=0;pointerEvents=1;fontSize=16;" parent="s3DEbMEIwhYJtTjX-OK3-12" vertex="1">
          <mxGeometry x="776" width="194" height="75" as="geometry">
            <mxRectangle width="194" height="75" as="alternateBounds" />
          </mxGeometry>
        </mxCell>
        <mxCell id="s3DEbMEIwhYJtTjX-OK3-18" value="Juan" style="shape=partialRectangle;html=1;whiteSpace=wrap;connectable=0;strokeColor=inherit;overflow=hidden;fillColor=none;top=0;left=0;bottom=0;right=0;pointerEvents=1;fontSize=16;" parent="s3DEbMEIwhYJtTjX-OK3-12" vertex="1">
          <mxGeometry x="970" width="194" height="75" as="geometry">
            <mxRectangle width="194" height="75" as="alternateBounds" />
          </mxGeometry>
        </mxCell>
        <mxCell id="s3DEbMEIwhYJtTjX-OK3-19" value="Calle 1" style="shape=partialRectangle;html=1;whiteSpace=wrap;connectable=0;strokeColor=inherit;overflow=hidden;fillColor=none;top=0;left=0;bottom=0;right=0;pointerEvents=1;fontSize=16;" parent="s3DEbMEIwhYJtTjX-OK3-12" vertex="1">
          <mxGeometry x="1164" width="194" height="75" as="geometry">
            <mxRectangle width="194" height="75" as="alternateBounds" />
          </mxGeometry>
        </mxCell>
        <mxCell id="s3DEbMEIwhYJtTjX-OK3-20" value="Ciudad A" style="shape=partialRectangle;html=1;whiteSpace=wrap;connectable=0;strokeColor=inherit;overflow=hidden;fillColor=none;top=0;left=0;bottom=0;right=0;pointerEvents=1;fontSize=16;" parent="s3DEbMEIwhYJtTjX-OK3-12" vertex="1">
          <mxGeometry x="1358" width="194" height="75" as="geometry">
            <mxRectangle width="194" height="75" as="alternateBounds" />
          </mxGeometry>
        </mxCell>
        <mxCell id="s3DEbMEIwhYJtTjX-OK3-21" style="shape=tableRow;horizontal=0;startSize=0;swimlaneHead=0;swimlaneBody=0;strokeColor=inherit;top=0;left=0;bottom=0;right=0;collapsible=0;dropTarget=0;fillColor=none;points=[[0,0.5],[1,0.5]];portConstraint=eastwest;fontSize=16;" parent="s3DEbMEIwhYJtTjX-OK3-2" vertex="1">
          <mxGeometry y="148" width="1552" height="74" as="geometry" />
        </mxCell>
        <mxCell id="s3DEbMEIwhYJtTjX-OK3-22" value="1" style="shape=partialRectangle;html=1;whiteSpace=wrap;connectable=0;strokeColor=inherit;overflow=hidden;fillColor=none;top=0;left=0;bottom=0;right=0;pointerEvents=1;fontSize=16;" parent="s3DEbMEIwhYJtTjX-OK3-21" vertex="1">
          <mxGeometry width="194" height="74" as="geometry">
            <mxRectangle width="194" height="74" as="alternateBounds" />
          </mxGeometry>
        </mxCell>
        <mxCell id="s3DEbMEIwhYJtTjX-OK3-23" value="LaptopHP" style="shape=partialRectangle;html=1;whiteSpace=wrap;connectable=0;strokeColor=inherit;overflow=hidden;fillColor=none;top=0;left=0;bottom=0;right=0;pointerEvents=1;fontSize=16;" parent="s3DEbMEIwhYJtTjX-OK3-21" vertex="1">
          <mxGeometry x="194" width="194" height="74" as="geometry">
            <mxRectangle width="194" height="74" as="alternateBounds" />
          </mxGeometry>
        </mxCell>
        <mxCell id="s3DEbMEIwhYJtTjX-OK3-24" value="Informática" style="shape=partialRectangle;html=1;whiteSpace=wrap;connectable=0;strokeColor=inherit;overflow=hidden;fillColor=none;top=0;left=0;bottom=0;right=0;pointerEvents=1;fontSize=16;" parent="s3DEbMEIwhYJtTjX-OK3-21" vertex="1">
          <mxGeometry x="388" width="194" height="74" as="geometry">
            <mxRectangle width="194" height="74" as="alternateBounds" />
          </mxGeometry>
        </mxCell>
        <mxCell id="s3DEbMEIwhYJtTjX-OK3-25" value="800" style="shape=partialRectangle;html=1;whiteSpace=wrap;connectable=0;strokeColor=inherit;overflow=hidden;fillColor=none;top=0;left=0;bottom=0;right=0;pointerEvents=1;fontSize=16;" parent="s3DEbMEIwhYJtTjX-OK3-21" vertex="1">
          <mxGeometry x="582" width="194" height="74" as="geometry">
            <mxRectangle width="194" height="74" as="alternateBounds" />
          </mxGeometry>
        </mxCell>
        <mxCell id="s3DEbMEIwhYJtTjX-OK3-26" value="101" style="shape=partialRectangle;html=1;whiteSpace=wrap;connectable=0;strokeColor=inherit;overflow=hidden;fillColor=none;top=0;left=0;bottom=0;right=0;pointerEvents=1;fontSize=16;" parent="s3DEbMEIwhYJtTjX-OK3-21" vertex="1">
          <mxGeometry x="776" width="194" height="74" as="geometry">
            <mxRectangle width="194" height="74" as="alternateBounds" />
          </mxGeometry>
        </mxCell>
        <mxCell id="s3DEbMEIwhYJtTjX-OK3-27" value="Juan" style="shape=partialRectangle;html=1;whiteSpace=wrap;connectable=0;strokeColor=inherit;overflow=hidden;fillColor=none;top=0;left=0;bottom=0;right=0;pointerEvents=1;fontSize=16;" parent="s3DEbMEIwhYJtTjX-OK3-21" vertex="1">
          <mxGeometry x="970" width="194" height="74" as="geometry">
            <mxRectangle width="194" height="74" as="alternateBounds" />
          </mxGeometry>
        </mxCell>
        <mxCell id="s3DEbMEIwhYJtTjX-OK3-28" value="Calle 2" style="shape=partialRectangle;html=1;whiteSpace=wrap;connectable=0;strokeColor=inherit;overflow=hidden;fillColor=none;top=0;left=0;bottom=0;right=0;pointerEvents=1;fontSize=16;" parent="s3DEbMEIwhYJtTjX-OK3-21" vertex="1">
          <mxGeometry x="1164" width="194" height="74" as="geometry">
            <mxRectangle width="194" height="74" as="alternateBounds" />
          </mxGeometry>
        </mxCell>
        <mxCell id="s3DEbMEIwhYJtTjX-OK3-29" value="Ciudad A" style="shape=partialRectangle;html=1;whiteSpace=wrap;connectable=0;strokeColor=inherit;overflow=hidden;fillColor=none;top=0;left=0;bottom=0;right=0;pointerEvents=1;fontSize=16;" parent="s3DEbMEIwhYJtTjX-OK3-21" vertex="1">
          <mxGeometry x="1358" width="194" height="74" as="geometry">
            <mxRectangle width="194" height="74" as="alternateBounds" />
          </mxGeometry>
        </mxCell>
        <mxCell id="s3DEbMEIwhYJtTjX-OK3-30" style="shape=tableRow;horizontal=0;startSize=0;swimlaneHead=0;swimlaneBody=0;strokeColor=inherit;top=0;left=0;bottom=0;right=0;collapsible=0;dropTarget=0;fillColor=none;points=[[0,0.5],[1,0.5]];portConstraint=eastwest;fontSize=16;" parent="s3DEbMEIwhYJtTjX-OK3-2" vertex="1">
          <mxGeometry y="222" width="1552" height="73" as="geometry" />
        </mxCell>
        <mxCell id="s3DEbMEIwhYJtTjX-OK3-31" value="2" style="shape=partialRectangle;html=1;whiteSpace=wrap;connectable=0;strokeColor=inherit;overflow=hidden;fillColor=none;top=0;left=0;bottom=0;right=0;pointerEvents=1;fontSize=16;" parent="s3DEbMEIwhYJtTjX-OK3-30" vertex="1">
          <mxGeometry width="194" height="73" as="geometry">
            <mxRectangle width="194" height="73" as="alternateBounds" />
          </mxGeometry>
        </mxCell>
        <mxCell id="s3DEbMEIwhYJtTjX-OK3-32" value="Camiseta Nike" style="shape=partialRectangle;html=1;whiteSpace=wrap;connectable=0;strokeColor=inherit;overflow=hidden;fillColor=none;top=0;left=0;bottom=0;right=0;pointerEvents=1;fontSize=16;" parent="s3DEbMEIwhYJtTjX-OK3-30" vertex="1">
          <mxGeometry x="194" width="194" height="73" as="geometry">
            <mxRectangle width="194" height="73" as="alternateBounds" />
          </mxGeometry>
        </mxCell>
        <mxCell id="s3DEbMEIwhYJtTjX-OK3-33" value="Ropa" style="shape=partialRectangle;html=1;whiteSpace=wrap;connectable=0;strokeColor=inherit;overflow=hidden;fillColor=none;top=0;left=0;bottom=0;right=0;pointerEvents=1;fontSize=16;" parent="s3DEbMEIwhYJtTjX-OK3-30" vertex="1">
          <mxGeometry x="388" width="194" height="73" as="geometry">
            <mxRectangle width="194" height="73" as="alternateBounds" />
          </mxGeometry>
        </mxCell>
        <mxCell id="s3DEbMEIwhYJtTjX-OK3-34" value="30" style="shape=partialRectangle;html=1;whiteSpace=wrap;connectable=0;strokeColor=inherit;overflow=hidden;fillColor=none;top=0;left=0;bottom=0;right=0;pointerEvents=1;fontSize=16;" parent="s3DEbMEIwhYJtTjX-OK3-30" vertex="1">
          <mxGeometry x="582" width="194" height="73" as="geometry">
            <mxRectangle width="194" height="73" as="alternateBounds" />
          </mxGeometry>
        </mxCell>
        <mxCell id="s3DEbMEIwhYJtTjX-OK3-35" value="102" style="shape=partialRectangle;html=1;whiteSpace=wrap;connectable=0;strokeColor=inherit;overflow=hidden;fillColor=none;top=0;left=0;bottom=0;right=0;pointerEvents=1;fontSize=16;" parent="s3DEbMEIwhYJtTjX-OK3-30" vertex="1">
          <mxGeometry x="776" width="194" height="73" as="geometry">
            <mxRectangle width="194" height="73" as="alternateBounds" />
          </mxGeometry>
        </mxCell>
        <mxCell id="s3DEbMEIwhYJtTjX-OK3-36" value="María" style="shape=partialRectangle;html=1;whiteSpace=wrap;connectable=0;strokeColor=inherit;overflow=hidden;fillColor=none;top=0;left=0;bottom=0;right=0;pointerEvents=1;fontSize=16;" parent="s3DEbMEIwhYJtTjX-OK3-30" vertex="1">
          <mxGeometry x="970" width="194" height="73" as="geometry">
            <mxRectangle width="194" height="73" as="alternateBounds" />
          </mxGeometry>
        </mxCell>
        <mxCell id="s3DEbMEIwhYJtTjX-OK3-37" value="Calle 3" style="shape=partialRectangle;html=1;whiteSpace=wrap;connectable=0;strokeColor=inherit;overflow=hidden;fillColor=none;top=0;left=0;bottom=0;right=0;pointerEvents=1;fontSize=16;" parent="s3DEbMEIwhYJtTjX-OK3-30" vertex="1">
          <mxGeometry x="1164" width="194" height="73" as="geometry">
            <mxRectangle width="194" height="73" as="alternateBounds" />
          </mxGeometry>
        </mxCell>
        <mxCell id="s3DEbMEIwhYJtTjX-OK3-38" value="Ciudad B" style="shape=partialRectangle;html=1;whiteSpace=wrap;connectable=0;strokeColor=inherit;overflow=hidden;fillColor=none;top=0;left=0;bottom=0;right=0;pointerEvents=1;fontSize=16;" parent="s3DEbMEIwhYJtTjX-OK3-30" vertex="1">
          <mxGeometry x="1358" width="194" height="73" as="geometry">
            <mxRectangle width="194" height="73" as="alternateBounds" />
          </mxGeometry>
        </mxCell>
        <mxCell id="s3DEbMEIwhYJtTjX-OK3-39" style="shape=tableRow;horizontal=0;startSize=0;swimlaneHead=0;swimlaneBody=0;strokeColor=inherit;top=0;left=0;bottom=0;right=0;collapsible=0;dropTarget=0;fillColor=none;points=[[0,0.5],[1,0.5]];portConstraint=eastwest;fontSize=16;" parent="s3DEbMEIwhYJtTjX-OK3-2" vertex="1">
          <mxGeometry y="295" width="1552" height="73" as="geometry" />
        </mxCell>
        <mxCell id="s3DEbMEIwhYJtTjX-OK3-40" value="2" style="shape=partialRectangle;html=1;whiteSpace=wrap;connectable=0;strokeColor=inherit;overflow=hidden;fillColor=none;top=0;left=0;bottom=0;right=0;pointerEvents=1;fontSize=16;" parent="s3DEbMEIwhYJtTjX-OK3-39" vertex="1">
          <mxGeometry width="194" height="73" as="geometry">
            <mxRectangle width="194" height="73" as="alternateBounds" />
          </mxGeometry>
        </mxCell>
        <mxCell id="s3DEbMEIwhYJtTjX-OK3-41" value="Camiseta Nike" style="shape=partialRectangle;html=1;whiteSpace=wrap;connectable=0;strokeColor=inherit;overflow=hidden;fillColor=none;top=0;left=0;bottom=0;right=0;pointerEvents=1;fontSize=16;" parent="s3DEbMEIwhYJtTjX-OK3-39" vertex="1">
          <mxGeometry x="194" width="194" height="73" as="geometry">
            <mxRectangle width="194" height="73" as="alternateBounds" />
          </mxGeometry>
        </mxCell>
        <mxCell id="s3DEbMEIwhYJtTjX-OK3-42" value="Deportes" style="shape=partialRectangle;html=1;whiteSpace=wrap;connectable=0;strokeColor=inherit;overflow=hidden;fillColor=none;top=0;left=0;bottom=0;right=0;pointerEvents=1;fontSize=16;" parent="s3DEbMEIwhYJtTjX-OK3-39" vertex="1">
          <mxGeometry x="388" width="194" height="73" as="geometry">
            <mxRectangle width="194" height="73" as="alternateBounds" />
          </mxGeometry>
        </mxCell>
        <mxCell id="s3DEbMEIwhYJtTjX-OK3-43" value="30" style="shape=partialRectangle;html=1;whiteSpace=wrap;connectable=0;strokeColor=inherit;overflow=hidden;fillColor=none;top=0;left=0;bottom=0;right=0;pointerEvents=1;fontSize=16;" parent="s3DEbMEIwhYJtTjX-OK3-39" vertex="1">
          <mxGeometry x="582" width="194" height="73" as="geometry">
            <mxRectangle width="194" height="73" as="alternateBounds" />
          </mxGeometry>
        </mxCell>
        <mxCell id="s3DEbMEIwhYJtTjX-OK3-44" value="102" style="shape=partialRectangle;html=1;whiteSpace=wrap;connectable=0;strokeColor=inherit;overflow=hidden;fillColor=none;top=0;left=0;bottom=0;right=0;pointerEvents=1;fontSize=16;" parent="s3DEbMEIwhYJtTjX-OK3-39" vertex="1">
          <mxGeometry x="776" width="194" height="73" as="geometry">
            <mxRectangle width="194" height="73" as="alternateBounds" />
          </mxGeometry>
        </mxCell>
        <mxCell id="s3DEbMEIwhYJtTjX-OK3-45" value="María" style="shape=partialRectangle;html=1;whiteSpace=wrap;connectable=0;strokeColor=inherit;overflow=hidden;fillColor=none;top=0;left=0;bottom=0;right=0;pointerEvents=1;fontSize=16;" parent="s3DEbMEIwhYJtTjX-OK3-39" vertex="1">
          <mxGeometry x="970" width="194" height="73" as="geometry">
            <mxRectangle width="194" height="73" as="alternateBounds" />
          </mxGeometry>
        </mxCell>
        <mxCell id="s3DEbMEIwhYJtTjX-OK3-46" value="Calle 3" style="shape=partialRectangle;html=1;whiteSpace=wrap;connectable=0;strokeColor=inherit;overflow=hidden;fillColor=none;top=0;left=0;bottom=0;right=0;pointerEvents=1;fontSize=16;" parent="s3DEbMEIwhYJtTjX-OK3-39" vertex="1">
          <mxGeometry x="1164" width="194" height="73" as="geometry">
            <mxRectangle width="194" height="73" as="alternateBounds" />
          </mxGeometry>
        </mxCell>
        <mxCell id="s3DEbMEIwhYJtTjX-OK3-47" value="Ciudad B" style="shape=partialRectangle;html=1;whiteSpace=wrap;connectable=0;strokeColor=inherit;overflow=hidden;fillColor=none;top=0;left=0;bottom=0;right=0;pointerEvents=1;fontSize=16;" parent="s3DEbMEIwhYJtTjX-OK3-39" vertex="1">
          <mxGeometry x="1358" width="194" height="73" as="geometry">
            <mxRectangle width="194" height="73" as="alternateBounds" />
          </mxGeometry>
        </mxCell>
        <mxCell id="s3DEbMEIwhYJtTjX-OK3-48" style="shape=tableRow;horizontal=0;startSize=0;swimlaneHead=0;swimlaneBody=0;strokeColor=inherit;top=0;left=0;bottom=0;right=0;collapsible=0;dropTarget=0;fillColor=none;points=[[0,0.5],[1,0.5]];portConstraint=eastwest;fontSize=16;" parent="s3DEbMEIwhYJtTjX-OK3-2" vertex="1">
          <mxGeometry y="368" width="1552" height="74" as="geometry" />
        </mxCell>
        <mxCell id="s3DEbMEIwhYJtTjX-OK3-49" value="3" style="shape=partialRectangle;html=1;whiteSpace=wrap;connectable=0;strokeColor=inherit;overflow=hidden;fillColor=none;top=0;left=0;bottom=0;right=0;pointerEvents=1;fontSize=16;" parent="s3DEbMEIwhYJtTjX-OK3-48" vertex="1">
          <mxGeometry width="194" height="74" as="geometry">
            <mxRectangle width="194" height="74" as="alternateBounds" />
          </mxGeometry>
        </mxCell>
        <mxCell id="s3DEbMEIwhYJtTjX-OK3-50" value="Libro &quot;Dune&quot;" style="shape=partialRectangle;html=1;whiteSpace=wrap;connectable=0;strokeColor=inherit;overflow=hidden;fillColor=none;top=0;left=0;bottom=0;right=0;pointerEvents=1;fontSize=16;" parent="s3DEbMEIwhYJtTjX-OK3-48" vertex="1">
          <mxGeometry x="194" width="194" height="74" as="geometry">
            <mxRectangle width="194" height="74" as="alternateBounds" />
          </mxGeometry>
        </mxCell>
        <mxCell id="s3DEbMEIwhYJtTjX-OK3-51" value="Libros" style="shape=partialRectangle;html=1;whiteSpace=wrap;connectable=0;strokeColor=inherit;overflow=hidden;fillColor=none;top=0;left=0;bottom=0;right=0;pointerEvents=1;fontSize=16;" parent="s3DEbMEIwhYJtTjX-OK3-48" vertex="1">
          <mxGeometry x="388" width="194" height="74" as="geometry">
            <mxRectangle width="194" height="74" as="alternateBounds" />
          </mxGeometry>
        </mxCell>
        <mxCell id="s3DEbMEIwhYJtTjX-OK3-52" value="20" style="shape=partialRectangle;html=1;whiteSpace=wrap;connectable=0;strokeColor=inherit;overflow=hidden;fillColor=none;top=0;left=0;bottom=0;right=0;pointerEvents=1;fontSize=16;" parent="s3DEbMEIwhYJtTjX-OK3-48" vertex="1">
          <mxGeometry x="582" width="194" height="74" as="geometry">
            <mxRectangle width="194" height="74" as="alternateBounds" />
          </mxGeometry>
        </mxCell>
        <mxCell id="s3DEbMEIwhYJtTjX-OK3-53" value="101" style="shape=partialRectangle;html=1;whiteSpace=wrap;connectable=0;strokeColor=inherit;overflow=hidden;fillColor=none;top=0;left=0;bottom=0;right=0;pointerEvents=1;fontSize=16;" parent="s3DEbMEIwhYJtTjX-OK3-48" vertex="1">
          <mxGeometry x="776" width="194" height="74" as="geometry">
            <mxRectangle width="194" height="74" as="alternateBounds" />
          </mxGeometry>
        </mxCell>
        <mxCell id="s3DEbMEIwhYJtTjX-OK3-54" value="Juan" style="shape=partialRectangle;html=1;whiteSpace=wrap;connectable=0;strokeColor=inherit;overflow=hidden;fillColor=none;top=0;left=0;bottom=0;right=0;pointerEvents=1;fontSize=16;" parent="s3DEbMEIwhYJtTjX-OK3-48" vertex="1">
          <mxGeometry x="970" width="194" height="74" as="geometry">
            <mxRectangle width="194" height="74" as="alternateBounds" />
          </mxGeometry>
        </mxCell>
        <mxCell id="s3DEbMEIwhYJtTjX-OK3-55" value="Calle 1" style="shape=partialRectangle;html=1;whiteSpace=wrap;connectable=0;strokeColor=inherit;overflow=hidden;fillColor=none;top=0;left=0;bottom=0;right=0;pointerEvents=1;fontSize=16;" parent="s3DEbMEIwhYJtTjX-OK3-48" vertex="1">
          <mxGeometry x="1164" width="194" height="74" as="geometry">
            <mxRectangle width="194" height="74" as="alternateBounds" />
          </mxGeometry>
        </mxCell>
        <mxCell id="s3DEbMEIwhYJtTjX-OK3-56" value="Ciudad A" style="shape=partialRectangle;html=1;whiteSpace=wrap;connectable=0;strokeColor=inherit;overflow=hidden;fillColor=none;top=0;left=0;bottom=0;right=0;pointerEvents=1;fontSize=16;" parent="s3DEbMEIwhYJtTjX-OK3-48" vertex="1">
          <mxGeometry x="1358" width="194" height="74" as="geometry">
            <mxRectangle width="194" height="74" as="alternateBounds" />
          </mxGeometry>
        </mxCell>
        <mxCell id="s3DEbMEIwhYJtTjX-OK3-57" style="shape=tableRow;horizontal=0;startSize=0;swimlaneHead=0;swimlaneBody=0;strokeColor=inherit;top=0;left=0;bottom=0;right=0;collapsible=0;dropTarget=0;fillColor=none;points=[[0,0.5],[1,0.5]];portConstraint=eastwest;fontSize=16;" parent="s3DEbMEIwhYJtTjX-OK3-2" vertex="1">
          <mxGeometry y="442" width="1552" height="74" as="geometry" />
        </mxCell>
        <mxCell id="s3DEbMEIwhYJtTjX-OK3-58" value="3" style="shape=partialRectangle;html=1;whiteSpace=wrap;connectable=0;strokeColor=inherit;overflow=hidden;fillColor=none;top=0;left=0;bottom=0;right=0;pointerEvents=1;fontSize=16;" parent="s3DEbMEIwhYJtTjX-OK3-57" vertex="1">
          <mxGeometry width="194" height="74" as="geometry">
            <mxRectangle width="194" height="74" as="alternateBounds" />
          </mxGeometry>
        </mxCell>
        <mxCell id="s3DEbMEIwhYJtTjX-OK3-59" value="Libro &quot;Dune&quot;" style="shape=partialRectangle;html=1;whiteSpace=wrap;connectable=0;strokeColor=inherit;overflow=hidden;fillColor=none;top=0;left=0;bottom=0;right=0;pointerEvents=1;fontSize=16;" parent="s3DEbMEIwhYJtTjX-OK3-57" vertex="1">
          <mxGeometry x="194" width="194" height="74" as="geometry">
            <mxRectangle width="194" height="74" as="alternateBounds" />
          </mxGeometry>
        </mxCell>
        <mxCell id="s3DEbMEIwhYJtTjX-OK3-60" value="Ciencia Ficción" style="shape=partialRectangle;html=1;whiteSpace=wrap;connectable=0;strokeColor=inherit;overflow=hidden;fillColor=none;top=0;left=0;bottom=0;right=0;pointerEvents=1;fontSize=16;" parent="s3DEbMEIwhYJtTjX-OK3-57" vertex="1">
          <mxGeometry x="388" width="194" height="74" as="geometry">
            <mxRectangle width="194" height="74" as="alternateBounds" />
          </mxGeometry>
        </mxCell>
        <mxCell id="s3DEbMEIwhYJtTjX-OK3-61" value="20" style="shape=partialRectangle;html=1;whiteSpace=wrap;connectable=0;strokeColor=inherit;overflow=hidden;fillColor=none;top=0;left=0;bottom=0;right=0;pointerEvents=1;fontSize=16;" parent="s3DEbMEIwhYJtTjX-OK3-57" vertex="1">
          <mxGeometry x="582" width="194" height="74" as="geometry">
            <mxRectangle width="194" height="74" as="alternateBounds" />
          </mxGeometry>
        </mxCell>
        <mxCell id="s3DEbMEIwhYJtTjX-OK3-62" value="101" style="shape=partialRectangle;html=1;whiteSpace=wrap;connectable=0;strokeColor=inherit;overflow=hidden;fillColor=none;top=0;left=0;bottom=0;right=0;pointerEvents=1;fontSize=16;" parent="s3DEbMEIwhYJtTjX-OK3-57" vertex="1">
          <mxGeometry x="776" width="194" height="74" as="geometry">
            <mxRectangle width="194" height="74" as="alternateBounds" />
          </mxGeometry>
        </mxCell>
        <mxCell id="s3DEbMEIwhYJtTjX-OK3-63" value="Juan" style="shape=partialRectangle;html=1;whiteSpace=wrap;connectable=0;strokeColor=inherit;overflow=hidden;fillColor=none;top=0;left=0;bottom=0;right=0;pointerEvents=1;fontSize=16;" parent="s3DEbMEIwhYJtTjX-OK3-57" vertex="1">
          <mxGeometry x="970" width="194" height="74" as="geometry">
            <mxRectangle width="194" height="74" as="alternateBounds" />
          </mxGeometry>
        </mxCell>
        <mxCell id="s3DEbMEIwhYJtTjX-OK3-64" value="Calle 1" style="shape=partialRectangle;html=1;whiteSpace=wrap;connectable=0;strokeColor=inherit;overflow=hidden;fillColor=none;top=0;left=0;bottom=0;right=0;pointerEvents=1;fontSize=16;" parent="s3DEbMEIwhYJtTjX-OK3-57" vertex="1">
          <mxGeometry x="1164" width="194" height="74" as="geometry">
            <mxRectangle width="194" height="74" as="alternateBounds" />
          </mxGeometry>
        </mxCell>
        <mxCell id="s3DEbMEIwhYJtTjX-OK3-65" value="Ciudad A" style="shape=partialRectangle;html=1;whiteSpace=wrap;connectable=0;strokeColor=inherit;overflow=hidden;fillColor=none;top=0;left=0;bottom=0;right=0;pointerEvents=1;fontSize=16;" parent="s3DEbMEIwhYJtTjX-OK3-57" vertex="1">
          <mxGeometry x="1358" width="194" height="74" as="geometry">
            <mxRectangle width="194" height="74" as="alternateBounds" />
          </mxGeometry>
        </mxCell>
        <mxCell id="s3DEbMEIwhYJtTjX-OK3-66" value="" style="shape=table;startSize=0;container=1;collapsible=0;childLayout=tableLayout;fontSize=16;" parent="1" vertex="1">
          <mxGeometry x="390" y="1690" width="456" height="286" as="geometry" />
        </mxCell>
        <mxCell id="s3DEbMEIwhYJtTjX-OK3-67" value="" style="shape=tableRow;horizontal=0;startSize=0;swimlaneHead=0;swimlaneBody=0;strokeColor=inherit;top=0;left=0;bottom=0;right=0;collapsible=0;dropTarget=0;fillColor=none;points=[[0,0.5],[1,0.5]];portConstraint=eastwest;fontSize=16;" parent="s3DEbMEIwhYJtTjX-OK3-66" vertex="1">
          <mxGeometry width="456" height="50" as="geometry" />
        </mxCell>
        <mxCell id="s3DEbMEIwhYJtTjX-OK3-90" value="ClienteID" style="shape=partialRectangle;html=1;whiteSpace=wrap;connectable=0;strokeColor=#d6b656;overflow=hidden;fillColor=#fff2cc;top=0;left=0;bottom=0;right=0;pointerEvents=1;fontSize=16;" parent="s3DEbMEIwhYJtTjX-OK3-67" vertex="1">
          <mxGeometry width="114" height="50" as="geometry">
            <mxRectangle width="114" height="50" as="alternateBounds" />
          </mxGeometry>
        </mxCell>
        <mxCell id="s3DEbMEIwhYJtTjX-OK3-87" value="NombreCliente" style="shape=partialRectangle;html=1;whiteSpace=wrap;connectable=0;strokeColor=#b85450;overflow=hidden;fillColor=#f8cecc;top=0;left=0;bottom=0;right=0;pointerEvents=1;fontSize=16;" parent="s3DEbMEIwhYJtTjX-OK3-67" vertex="1">
          <mxGeometry x="114" width="114" height="50" as="geometry">
            <mxRectangle width="114" height="50" as="alternateBounds" />
          </mxGeometry>
        </mxCell>
        <mxCell id="s3DEbMEIwhYJtTjX-OK3-68" value="Calle" style="shape=partialRectangle;html=1;whiteSpace=wrap;connectable=0;strokeColor=#d6b656;overflow=hidden;fillColor=#fff2cc;top=0;left=0;bottom=0;right=0;pointerEvents=1;fontSize=16;" parent="s3DEbMEIwhYJtTjX-OK3-67" vertex="1">
          <mxGeometry x="228" width="113" height="50" as="geometry">
            <mxRectangle width="113" height="50" as="alternateBounds" />
          </mxGeometry>
        </mxCell>
        <mxCell id="s3DEbMEIwhYJtTjX-OK3-69" value="Ciudad" style="shape=partialRectangle;html=1;whiteSpace=wrap;connectable=0;strokeColor=#b85450;overflow=hidden;fillColor=#f8cecc;top=0;left=0;bottom=0;right=0;pointerEvents=1;fontSize=16;" parent="s3DEbMEIwhYJtTjX-OK3-67" vertex="1">
          <mxGeometry x="341" width="115" height="50" as="geometry">
            <mxRectangle width="115" height="50" as="alternateBounds" />
          </mxGeometry>
        </mxCell>
        <mxCell id="s3DEbMEIwhYJtTjX-OK3-71" value="" style="shape=tableRow;horizontal=0;startSize=0;swimlaneHead=0;swimlaneBody=0;strokeColor=inherit;top=0;left=0;bottom=0;right=0;collapsible=0;dropTarget=0;fillColor=none;points=[[0,0.5],[1,0.5]];portConstraint=eastwest;fontSize=16;" parent="s3DEbMEIwhYJtTjX-OK3-66" vertex="1">
          <mxGeometry y="50" width="456" height="79" as="geometry" />
        </mxCell>
        <mxCell id="s3DEbMEIwhYJtTjX-OK3-91" value="101" style="shape=partialRectangle;html=1;whiteSpace=wrap;connectable=0;strokeColor=inherit;overflow=hidden;fillColor=none;top=0;left=0;bottom=0;right=0;pointerEvents=1;fontSize=16;" parent="s3DEbMEIwhYJtTjX-OK3-71" vertex="1">
          <mxGeometry width="114" height="79" as="geometry">
            <mxRectangle width="114" height="79" as="alternateBounds" />
          </mxGeometry>
        </mxCell>
        <mxCell id="s3DEbMEIwhYJtTjX-OK3-88" value="Juan" style="shape=partialRectangle;html=1;whiteSpace=wrap;connectable=0;strokeColor=inherit;overflow=hidden;fillColor=none;top=0;left=0;bottom=0;right=0;pointerEvents=1;fontSize=16;" parent="s3DEbMEIwhYJtTjX-OK3-71" vertex="1">
          <mxGeometry x="114" width="114" height="79" as="geometry">
            <mxRectangle width="114" height="79" as="alternateBounds" />
          </mxGeometry>
        </mxCell>
        <mxCell id="s3DEbMEIwhYJtTjX-OK3-72" value="Calle 1" style="shape=partialRectangle;html=1;whiteSpace=wrap;connectable=0;strokeColor=inherit;overflow=hidden;fillColor=none;top=0;left=0;bottom=0;right=0;pointerEvents=1;fontSize=16;" parent="s3DEbMEIwhYJtTjX-OK3-71" vertex="1">
          <mxGeometry x="228" width="113" height="79" as="geometry">
            <mxRectangle width="113" height="79" as="alternateBounds" />
          </mxGeometry>
        </mxCell>
        <mxCell id="s3DEbMEIwhYJtTjX-OK3-73" value="Ciudad A" style="shape=partialRectangle;html=1;whiteSpace=wrap;connectable=0;strokeColor=inherit;overflow=hidden;fillColor=none;top=0;left=0;bottom=0;right=0;pointerEvents=1;fontSize=16;" parent="s3DEbMEIwhYJtTjX-OK3-71" vertex="1">
          <mxGeometry x="341" width="115" height="79" as="geometry">
            <mxRectangle width="115" height="79" as="alternateBounds" />
          </mxGeometry>
        </mxCell>
        <mxCell id="s3DEbMEIwhYJtTjX-OK3-75" value="" style="shape=tableRow;horizontal=0;startSize=0;swimlaneHead=0;swimlaneBody=0;strokeColor=inherit;top=0;left=0;bottom=0;right=0;collapsible=0;dropTarget=0;fillColor=none;points=[[0,0.5],[1,0.5]];portConstraint=eastwest;fontSize=16;" parent="s3DEbMEIwhYJtTjX-OK3-66" vertex="1">
          <mxGeometry y="129" width="456" height="78" as="geometry" />
        </mxCell>
        <mxCell id="s3DEbMEIwhYJtTjX-OK3-92" value="102" style="shape=partialRectangle;html=1;whiteSpace=wrap;connectable=0;strokeColor=inherit;overflow=hidden;fillColor=none;top=0;left=0;bottom=0;right=0;pointerEvents=1;fontSize=16;" parent="s3DEbMEIwhYJtTjX-OK3-75" vertex="1">
          <mxGeometry width="114" height="78" as="geometry">
            <mxRectangle width="114" height="78" as="alternateBounds" />
          </mxGeometry>
        </mxCell>
        <mxCell id="s3DEbMEIwhYJtTjX-OK3-89" value="María" style="shape=partialRectangle;html=1;whiteSpace=wrap;connectable=0;strokeColor=inherit;overflow=hidden;fillColor=none;top=0;left=0;bottom=0;right=0;pointerEvents=1;fontSize=16;" parent="s3DEbMEIwhYJtTjX-OK3-75" vertex="1">
          <mxGeometry x="114" width="114" height="78" as="geometry">
            <mxRectangle width="114" height="78" as="alternateBounds" />
          </mxGeometry>
        </mxCell>
        <mxCell id="s3DEbMEIwhYJtTjX-OK3-76" value="Calle 3" style="shape=partialRectangle;html=1;whiteSpace=wrap;connectable=0;strokeColor=inherit;overflow=hidden;fillColor=none;top=0;left=0;bottom=0;right=0;pointerEvents=1;fontSize=16;" parent="s3DEbMEIwhYJtTjX-OK3-75" vertex="1">
          <mxGeometry x="228" width="113" height="78" as="geometry">
            <mxRectangle width="113" height="78" as="alternateBounds" />
          </mxGeometry>
        </mxCell>
        <mxCell id="s3DEbMEIwhYJtTjX-OK3-77" value="Ciudad B" style="shape=partialRectangle;html=1;whiteSpace=wrap;connectable=0;strokeColor=inherit;overflow=hidden;fillColor=none;top=0;left=0;bottom=0;right=0;pointerEvents=1;fontSize=16;" parent="s3DEbMEIwhYJtTjX-OK3-75" vertex="1">
          <mxGeometry x="341" width="115" height="78" as="geometry">
            <mxRectangle width="115" height="78" as="alternateBounds" />
          </mxGeometry>
        </mxCell>
        <mxCell id="s3DEbMEIwhYJtTjX-OK3-100" style="shape=tableRow;horizontal=0;startSize=0;swimlaneHead=0;swimlaneBody=0;strokeColor=inherit;top=0;left=0;bottom=0;right=0;collapsible=0;dropTarget=0;fillColor=none;points=[[0,0.5],[1,0.5]];portConstraint=eastwest;fontSize=16;" parent="s3DEbMEIwhYJtTjX-OK3-66" vertex="1">
          <mxGeometry y="207" width="456" height="79" as="geometry" />
        </mxCell>
        <mxCell id="s3DEbMEIwhYJtTjX-OK3-101" value="103" style="shape=partialRectangle;html=1;whiteSpace=wrap;connectable=0;strokeColor=inherit;overflow=hidden;fillColor=none;top=0;left=0;bottom=0;right=0;pointerEvents=1;fontSize=16;" parent="s3DEbMEIwhYJtTjX-OK3-100" vertex="1">
          <mxGeometry width="114" height="79" as="geometry">
            <mxRectangle width="114" height="79" as="alternateBounds" />
          </mxGeometry>
        </mxCell>
        <mxCell id="s3DEbMEIwhYJtTjX-OK3-102" value="Juan" style="shape=partialRectangle;html=1;whiteSpace=wrap;connectable=0;strokeColor=inherit;overflow=hidden;fillColor=none;top=0;left=0;bottom=0;right=0;pointerEvents=1;fontSize=16;" parent="s3DEbMEIwhYJtTjX-OK3-100" vertex="1">
          <mxGeometry x="114" width="114" height="79" as="geometry">
            <mxRectangle width="114" height="79" as="alternateBounds" />
          </mxGeometry>
        </mxCell>
        <mxCell id="s3DEbMEIwhYJtTjX-OK3-103" value="Calle 2" style="shape=partialRectangle;html=1;whiteSpace=wrap;connectable=0;strokeColor=inherit;overflow=hidden;fillColor=none;top=0;left=0;bottom=0;right=0;pointerEvents=1;fontSize=16;" parent="s3DEbMEIwhYJtTjX-OK3-100" vertex="1">
          <mxGeometry x="228" width="113" height="79" as="geometry">
            <mxRectangle width="113" height="79" as="alternateBounds" />
          </mxGeometry>
        </mxCell>
        <mxCell id="s3DEbMEIwhYJtTjX-OK3-104" value="Ciudad A" style="shape=partialRectangle;html=1;whiteSpace=wrap;connectable=0;strokeColor=inherit;overflow=hidden;fillColor=none;top=0;left=0;bottom=0;right=0;pointerEvents=1;fontSize=16;" parent="s3DEbMEIwhYJtTjX-OK3-100" vertex="1">
          <mxGeometry x="341" width="115" height="79" as="geometry">
            <mxRectangle width="115" height="79" as="alternateBounds" />
          </mxGeometry>
        </mxCell>
        <mxCell id="ogsn_jLDaLiDsz0vxCv--1" value="" style="shape=table;startSize=0;container=1;collapsible=0;childLayout=tableLayout;fontSize=16;" parent="1" vertex="1">
          <mxGeometry x="1030" y="1640" width="480" height="523" as="geometry" />
        </mxCell>
        <mxCell id="ogsn_jLDaLiDsz0vxCv--2" value="" style="shape=tableRow;horizontal=0;startSize=0;swimlaneHead=0;swimlaneBody=0;strokeColor=inherit;top=0;left=0;bottom=0;right=0;collapsible=0;dropTarget=0;fillColor=none;points=[[0,0.5],[1,0.5]];portConstraint=eastwest;fontSize=16;" parent="ogsn_jLDaLiDsz0vxCv--1" vertex="1">
          <mxGeometry width="480" height="50" as="geometry" />
        </mxCell>
        <mxCell id="ogsn_jLDaLiDsz0vxCv--3" value="ProductoID" style="shape=partialRectangle;html=1;whiteSpace=wrap;connectable=0;strokeColor=#d6b656;overflow=hidden;fillColor=#fff2cc;top=0;left=0;bottom=0;right=0;pointerEvents=1;fontSize=16;" parent="ogsn_jLDaLiDsz0vxCv--2" vertex="1">
          <mxGeometry width="120" height="50" as="geometry">
            <mxRectangle width="120" height="50" as="alternateBounds" />
          </mxGeometry>
        </mxCell>
        <mxCell id="Dbr4TqRVh1q2xF2fHn3X-8" value="Nombre" style="shape=partialRectangle;html=1;whiteSpace=wrap;connectable=0;strokeColor=#b85450;overflow=hidden;fillColor=#f8cecc;top=0;left=0;bottom=0;right=0;pointerEvents=1;fontSize=16;" parent="ogsn_jLDaLiDsz0vxCv--2" vertex="1">
          <mxGeometry x="120" width="120" height="50" as="geometry">
            <mxRectangle width="120" height="50" as="alternateBounds" />
          </mxGeometry>
        </mxCell>
        <mxCell id="Dbr4TqRVh1q2xF2fHn3X-151" value="Categoría" style="shape=partialRectangle;html=1;whiteSpace=wrap;connectable=0;strokeColor=#b85450;overflow=hidden;fillColor=#f8cecc;top=0;left=0;bottom=0;right=0;pointerEvents=1;fontSize=16;" parent="ogsn_jLDaLiDsz0vxCv--2" vertex="1">
          <mxGeometry x="240" width="120" height="50" as="geometry">
            <mxRectangle width="120" height="50" as="alternateBounds" />
          </mxGeometry>
        </mxCell>
        <mxCell id="Dbr4TqRVh1q2xF2fHn3X-158" value="Precio" style="shape=partialRectangle;html=1;whiteSpace=wrap;connectable=0;strokeColor=#b85450;overflow=hidden;fillColor=#f8cecc;top=0;left=0;bottom=0;right=0;pointerEvents=1;fontSize=16;" parent="ogsn_jLDaLiDsz0vxCv--2" vertex="1">
          <mxGeometry x="360" width="120" height="50" as="geometry">
            <mxRectangle width="120" height="50" as="alternateBounds" />
          </mxGeometry>
        </mxCell>
        <mxCell id="ogsn_jLDaLiDsz0vxCv--7" value="" style="shape=tableRow;horizontal=0;startSize=0;swimlaneHead=0;swimlaneBody=0;strokeColor=inherit;top=0;left=0;bottom=0;right=0;collapsible=0;dropTarget=0;fillColor=none;points=[[0,0.5],[1,0.5]];portConstraint=eastwest;fontSize=16;" parent="ogsn_jLDaLiDsz0vxCv--1" vertex="1">
          <mxGeometry y="50" width="480" height="79" as="geometry" />
        </mxCell>
        <mxCell id="ogsn_jLDaLiDsz0vxCv--8" value="1" style="shape=partialRectangle;html=1;whiteSpace=wrap;connectable=0;strokeColor=inherit;overflow=hidden;fillColor=none;top=0;left=0;bottom=0;right=0;pointerEvents=1;fontSize=16;" parent="ogsn_jLDaLiDsz0vxCv--7" vertex="1">
          <mxGeometry width="120" height="79" as="geometry">
            <mxRectangle width="120" height="79" as="alternateBounds" />
          </mxGeometry>
        </mxCell>
        <mxCell id="Dbr4TqRVh1q2xF2fHn3X-9" value="Electrónicos" style="shape=partialRectangle;html=1;whiteSpace=wrap;connectable=0;strokeColor=inherit;overflow=hidden;fillColor=none;top=0;left=0;bottom=0;right=0;pointerEvents=1;fontSize=16;" parent="ogsn_jLDaLiDsz0vxCv--7" vertex="1">
          <mxGeometry x="120" width="120" height="79" as="geometry">
            <mxRectangle width="120" height="79" as="alternateBounds" />
          </mxGeometry>
        </mxCell>
        <mxCell id="Dbr4TqRVh1q2xF2fHn3X-152" value="Electrónicos" style="shape=partialRectangle;html=1;whiteSpace=wrap;connectable=0;strokeColor=inherit;overflow=hidden;fillColor=none;top=0;left=0;bottom=0;right=0;pointerEvents=1;fontSize=16;" parent="ogsn_jLDaLiDsz0vxCv--7" vertex="1">
          <mxGeometry x="240" width="120" height="79" as="geometry">
            <mxRectangle width="120" height="79" as="alternateBounds" />
          </mxGeometry>
        </mxCell>
        <mxCell id="Dbr4TqRVh1q2xF2fHn3X-159" value="800" style="shape=partialRectangle;html=1;whiteSpace=wrap;connectable=0;strokeColor=inherit;overflow=hidden;fillColor=none;top=0;left=0;bottom=0;right=0;pointerEvents=1;fontSize=16;" parent="ogsn_jLDaLiDsz0vxCv--7" vertex="1">
          <mxGeometry x="360" width="120" height="79" as="geometry">
            <mxRectangle width="120" height="79" as="alternateBounds" />
          </mxGeometry>
        </mxCell>
        <mxCell id="ogsn_jLDaLiDsz0vxCv--12" value="" style="shape=tableRow;horizontal=0;startSize=0;swimlaneHead=0;swimlaneBody=0;strokeColor=inherit;top=0;left=0;bottom=0;right=0;collapsible=0;dropTarget=0;fillColor=none;points=[[0,0.5],[1,0.5]];portConstraint=eastwest;fontSize=16;" parent="ogsn_jLDaLiDsz0vxCv--1" vertex="1">
          <mxGeometry y="129" width="480" height="78" as="geometry" />
        </mxCell>
        <mxCell id="ogsn_jLDaLiDsz0vxCv--13" value="1" style="shape=partialRectangle;html=1;whiteSpace=wrap;connectable=0;strokeColor=inherit;overflow=hidden;fillColor=none;top=0;left=0;bottom=0;right=0;pointerEvents=1;fontSize=16;" parent="ogsn_jLDaLiDsz0vxCv--12" vertex="1">
          <mxGeometry width="120" height="78" as="geometry">
            <mxRectangle width="120" height="78" as="alternateBounds" />
          </mxGeometry>
        </mxCell>
        <mxCell id="Dbr4TqRVh1q2xF2fHn3X-10" value="Informática" style="shape=partialRectangle;html=1;whiteSpace=wrap;connectable=0;strokeColor=inherit;overflow=hidden;fillColor=none;top=0;left=0;bottom=0;right=0;pointerEvents=1;fontSize=16;" parent="ogsn_jLDaLiDsz0vxCv--12" vertex="1">
          <mxGeometry x="120" width="120" height="78" as="geometry">
            <mxRectangle width="120" height="78" as="alternateBounds" />
          </mxGeometry>
        </mxCell>
        <mxCell id="Dbr4TqRVh1q2xF2fHn3X-153" value="Infórmatica" style="shape=partialRectangle;html=1;whiteSpace=wrap;connectable=0;strokeColor=inherit;overflow=hidden;fillColor=none;top=0;left=0;bottom=0;right=0;pointerEvents=1;fontSize=16;" parent="ogsn_jLDaLiDsz0vxCv--12" vertex="1">
          <mxGeometry x="240" width="120" height="78" as="geometry">
            <mxRectangle width="120" height="78" as="alternateBounds" />
          </mxGeometry>
        </mxCell>
        <mxCell id="Dbr4TqRVh1q2xF2fHn3X-160" value="800" style="shape=partialRectangle;html=1;whiteSpace=wrap;connectable=0;strokeColor=inherit;overflow=hidden;fillColor=none;top=0;left=0;bottom=0;right=0;pointerEvents=1;fontSize=16;" parent="ogsn_jLDaLiDsz0vxCv--12" vertex="1">
          <mxGeometry x="360" width="120" height="78" as="geometry">
            <mxRectangle width="120" height="78" as="alternateBounds" />
          </mxGeometry>
        </mxCell>
        <mxCell id="ogsn_jLDaLiDsz0vxCv--17" style="shape=tableRow;horizontal=0;startSize=0;swimlaneHead=0;swimlaneBody=0;strokeColor=inherit;top=0;left=0;bottom=0;right=0;collapsible=0;dropTarget=0;fillColor=none;points=[[0,0.5],[1,0.5]];portConstraint=eastwest;fontSize=16;" parent="ogsn_jLDaLiDsz0vxCv--1" vertex="1">
          <mxGeometry y="207" width="480" height="79" as="geometry" />
        </mxCell>
        <mxCell id="ogsn_jLDaLiDsz0vxCv--18" value="2" style="shape=partialRectangle;html=1;whiteSpace=wrap;connectable=0;strokeColor=inherit;overflow=hidden;fillColor=none;top=0;left=0;bottom=0;right=0;pointerEvents=1;fontSize=16;" parent="ogsn_jLDaLiDsz0vxCv--17" vertex="1">
          <mxGeometry width="120" height="79" as="geometry">
            <mxRectangle width="120" height="79" as="alternateBounds" />
          </mxGeometry>
        </mxCell>
        <mxCell id="Dbr4TqRVh1q2xF2fHn3X-11" value="Ropa" style="shape=partialRectangle;html=1;whiteSpace=wrap;connectable=0;strokeColor=inherit;overflow=hidden;fillColor=none;top=0;left=0;bottom=0;right=0;pointerEvents=1;fontSize=16;" parent="ogsn_jLDaLiDsz0vxCv--17" vertex="1">
          <mxGeometry x="120" width="120" height="79" as="geometry">
            <mxRectangle width="120" height="79" as="alternateBounds" />
          </mxGeometry>
        </mxCell>
        <mxCell id="Dbr4TqRVh1q2xF2fHn3X-154" value="Ropa" style="shape=partialRectangle;html=1;whiteSpace=wrap;connectable=0;strokeColor=inherit;overflow=hidden;fillColor=none;top=0;left=0;bottom=0;right=0;pointerEvents=1;fontSize=16;" parent="ogsn_jLDaLiDsz0vxCv--17" vertex="1">
          <mxGeometry x="240" width="120" height="79" as="geometry">
            <mxRectangle width="120" height="79" as="alternateBounds" />
          </mxGeometry>
        </mxCell>
        <mxCell id="Dbr4TqRVh1q2xF2fHn3X-161" value="30" style="shape=partialRectangle;html=1;whiteSpace=wrap;connectable=0;strokeColor=inherit;overflow=hidden;fillColor=none;top=0;left=0;bottom=0;right=0;pointerEvents=1;fontSize=16;" parent="ogsn_jLDaLiDsz0vxCv--17" vertex="1">
          <mxGeometry x="360" width="120" height="79" as="geometry">
            <mxRectangle width="120" height="79" as="alternateBounds" />
          </mxGeometry>
        </mxCell>
        <mxCell id="ogsn_jLDaLiDsz0vxCv--22" style="shape=tableRow;horizontal=0;startSize=0;swimlaneHead=0;swimlaneBody=0;strokeColor=inherit;top=0;left=0;bottom=0;right=0;collapsible=0;dropTarget=0;fillColor=none;points=[[0,0.5],[1,0.5]];portConstraint=eastwest;fontSize=16;" parent="ogsn_jLDaLiDsz0vxCv--1" vertex="1">
          <mxGeometry y="286" width="480" height="79" as="geometry" />
        </mxCell>
        <mxCell id="ogsn_jLDaLiDsz0vxCv--23" value="2" style="shape=partialRectangle;html=1;whiteSpace=wrap;connectable=0;strokeColor=inherit;overflow=hidden;fillColor=none;top=0;left=0;bottom=0;right=0;pointerEvents=1;fontSize=16;" parent="ogsn_jLDaLiDsz0vxCv--22" vertex="1">
          <mxGeometry width="120" height="79" as="geometry">
            <mxRectangle width="120" height="79" as="alternateBounds" />
          </mxGeometry>
        </mxCell>
        <mxCell id="Dbr4TqRVh1q2xF2fHn3X-12" value="Deportes" style="shape=partialRectangle;html=1;whiteSpace=wrap;connectable=0;strokeColor=inherit;overflow=hidden;fillColor=none;top=0;left=0;bottom=0;right=0;pointerEvents=1;fontSize=16;" parent="ogsn_jLDaLiDsz0vxCv--22" vertex="1">
          <mxGeometry x="120" width="120" height="79" as="geometry">
            <mxRectangle width="120" height="79" as="alternateBounds" />
          </mxGeometry>
        </mxCell>
        <mxCell id="Dbr4TqRVh1q2xF2fHn3X-155" value="Deportes" style="shape=partialRectangle;html=1;whiteSpace=wrap;connectable=0;strokeColor=inherit;overflow=hidden;fillColor=none;top=0;left=0;bottom=0;right=0;pointerEvents=1;fontSize=16;" parent="ogsn_jLDaLiDsz0vxCv--22" vertex="1">
          <mxGeometry x="240" width="120" height="79" as="geometry">
            <mxRectangle width="120" height="79" as="alternateBounds" />
          </mxGeometry>
        </mxCell>
        <mxCell id="Dbr4TqRVh1q2xF2fHn3X-162" value="30" style="shape=partialRectangle;html=1;whiteSpace=wrap;connectable=0;strokeColor=inherit;overflow=hidden;fillColor=none;top=0;left=0;bottom=0;right=0;pointerEvents=1;fontSize=16;" parent="ogsn_jLDaLiDsz0vxCv--22" vertex="1">
          <mxGeometry x="360" width="120" height="79" as="geometry">
            <mxRectangle width="120" height="79" as="alternateBounds" />
          </mxGeometry>
        </mxCell>
        <mxCell id="ogsn_jLDaLiDsz0vxCv--25" style="shape=tableRow;horizontal=0;startSize=0;swimlaneHead=0;swimlaneBody=0;strokeColor=inherit;top=0;left=0;bottom=0;right=0;collapsible=0;dropTarget=0;fillColor=none;points=[[0,0.5],[1,0.5]];portConstraint=eastwest;fontSize=16;" parent="ogsn_jLDaLiDsz0vxCv--1" vertex="1">
          <mxGeometry y="365" width="480" height="79" as="geometry" />
        </mxCell>
        <mxCell id="ogsn_jLDaLiDsz0vxCv--26" value="3" style="shape=partialRectangle;html=1;whiteSpace=wrap;connectable=0;strokeColor=inherit;overflow=hidden;fillColor=none;top=0;left=0;bottom=0;right=0;pointerEvents=1;fontSize=16;" parent="ogsn_jLDaLiDsz0vxCv--25" vertex="1">
          <mxGeometry width="120" height="79" as="geometry">
            <mxRectangle width="120" height="79" as="alternateBounds" />
          </mxGeometry>
        </mxCell>
        <mxCell id="Dbr4TqRVh1q2xF2fHn3X-13" value="Libros" style="shape=partialRectangle;html=1;whiteSpace=wrap;connectable=0;strokeColor=inherit;overflow=hidden;fillColor=none;top=0;left=0;bottom=0;right=0;pointerEvents=1;fontSize=16;" parent="ogsn_jLDaLiDsz0vxCv--25" vertex="1">
          <mxGeometry x="120" width="120" height="79" as="geometry">
            <mxRectangle width="120" height="79" as="alternateBounds" />
          </mxGeometry>
        </mxCell>
        <mxCell id="Dbr4TqRVh1q2xF2fHn3X-156" value="Libros" style="shape=partialRectangle;html=1;whiteSpace=wrap;connectable=0;strokeColor=inherit;overflow=hidden;fillColor=none;top=0;left=0;bottom=0;right=0;pointerEvents=1;fontSize=16;" parent="ogsn_jLDaLiDsz0vxCv--25" vertex="1">
          <mxGeometry x="240" width="120" height="79" as="geometry">
            <mxRectangle width="120" height="79" as="alternateBounds" />
          </mxGeometry>
        </mxCell>
        <mxCell id="Dbr4TqRVh1q2xF2fHn3X-163" value="20" style="shape=partialRectangle;html=1;whiteSpace=wrap;connectable=0;strokeColor=inherit;overflow=hidden;fillColor=none;top=0;left=0;bottom=0;right=0;pointerEvents=1;fontSize=16;" parent="ogsn_jLDaLiDsz0vxCv--25" vertex="1">
          <mxGeometry x="360" width="120" height="79" as="geometry">
            <mxRectangle width="120" height="79" as="alternateBounds" />
          </mxGeometry>
        </mxCell>
        <mxCell id="ogsn_jLDaLiDsz0vxCv--31" style="shape=tableRow;horizontal=0;startSize=0;swimlaneHead=0;swimlaneBody=0;strokeColor=inherit;top=0;left=0;bottom=0;right=0;collapsible=0;dropTarget=0;fillColor=none;points=[[0,0.5],[1,0.5]];portConstraint=eastwest;fontSize=16;" parent="ogsn_jLDaLiDsz0vxCv--1" vertex="1">
          <mxGeometry y="444" width="480" height="79" as="geometry" />
        </mxCell>
        <mxCell id="ogsn_jLDaLiDsz0vxCv--32" value="3" style="shape=partialRectangle;html=1;whiteSpace=wrap;connectable=0;strokeColor=inherit;overflow=hidden;fillColor=none;top=0;left=0;bottom=0;right=0;pointerEvents=1;fontSize=16;" parent="ogsn_jLDaLiDsz0vxCv--31" vertex="1">
          <mxGeometry width="120" height="79" as="geometry">
            <mxRectangle width="120" height="79" as="alternateBounds" />
          </mxGeometry>
        </mxCell>
        <mxCell id="Dbr4TqRVh1q2xF2fHn3X-14" value="Ciencia Ficción" style="shape=partialRectangle;html=1;whiteSpace=wrap;connectable=0;strokeColor=inherit;overflow=hidden;fillColor=none;top=0;left=0;bottom=0;right=0;pointerEvents=1;fontSize=16;" parent="ogsn_jLDaLiDsz0vxCv--31" vertex="1">
          <mxGeometry x="120" width="120" height="79" as="geometry">
            <mxRectangle width="120" height="79" as="alternateBounds" />
          </mxGeometry>
        </mxCell>
        <mxCell id="Dbr4TqRVh1q2xF2fHn3X-157" value="Ciencia Ficción" style="shape=partialRectangle;html=1;whiteSpace=wrap;connectable=0;strokeColor=inherit;overflow=hidden;fillColor=none;top=0;left=0;bottom=0;right=0;pointerEvents=1;fontSize=16;" parent="ogsn_jLDaLiDsz0vxCv--31" vertex="1">
          <mxGeometry x="240" width="120" height="79" as="geometry">
            <mxRectangle width="120" height="79" as="alternateBounds" />
          </mxGeometry>
        </mxCell>
        <mxCell id="Dbr4TqRVh1q2xF2fHn3X-164" value="20" style="shape=partialRectangle;html=1;whiteSpace=wrap;connectable=0;strokeColor=inherit;overflow=hidden;fillColor=none;top=0;left=0;bottom=0;right=0;pointerEvents=1;fontSize=16;" parent="ogsn_jLDaLiDsz0vxCv--31" vertex="1">
          <mxGeometry x="360" width="120" height="79" as="geometry">
            <mxRectangle width="120" height="79" as="alternateBounds" />
          </mxGeometry>
        </mxCell>
        <mxCell id="Dbr4TqRVh1q2xF2fHn3X-150" value="&lt;div style=&quot;font-size: 20px;&quot;&gt;&lt;font style=&quot;font-size: 20px;&quot;&gt;Una vez pasada la tabla a 1FN, la pasaremos a 2FN.&amp;nbsp;&lt;/font&gt;&lt;/div&gt;&lt;div style=&quot;font-size: 20px;&quot;&gt;&lt;font style=&quot;font-size: 20px;&quot;&gt;Está forma solo ocurre si la tabla ha sido pasada anteriormente por 1FN&lt;/font&gt;&lt;/div&gt;&lt;font style=&quot;font-size: 20px;&quot;&gt;. Para hacer la 2FN, debemos hacer que todos los atributos se conviertan en independientes&lt;/font&gt;&lt;font style=&quot;font-size: 17px;&quot;&gt;.&lt;/font&gt;" style="text;html=1;align=center;verticalAlign=middle;resizable=0;points=[];autosize=1;strokeColor=none;fillColor=none;" parent="1" vertex="1">
          <mxGeometry x="252" y="876" width="852" height="84" as="geometry" />
        </mxCell>
        <mxCell id="Dbr4TqRVh1q2xF2fHn3X-165" value="" style="shape=table;startSize=0;container=1;collapsible=0;childLayout=tableLayout;fontSize=16;" parent="1" vertex="1">
          <mxGeometry x="70" y="2520" width="480" height="523" as="geometry" />
        </mxCell>
        <mxCell id="Dbr4TqRVh1q2xF2fHn3X-166" value="" style="shape=tableRow;horizontal=0;startSize=0;swimlaneHead=0;swimlaneBody=0;strokeColor=inherit;top=0;left=0;bottom=0;right=0;collapsible=0;dropTarget=0;fillColor=none;points=[[0,0.5],[1,0.5]];portConstraint=eastwest;fontSize=16;" parent="Dbr4TqRVh1q2xF2fHn3X-165" vertex="1">
          <mxGeometry width="480" height="50" as="geometry" />
        </mxCell>
        <mxCell id="Dbr4TqRVh1q2xF2fHn3X-167" value="ProductoID" style="shape=partialRectangle;html=1;whiteSpace=wrap;connectable=0;strokeColor=#d6b656;overflow=hidden;fillColor=#fff2cc;top=0;left=0;bottom=0;right=0;pointerEvents=1;fontSize=16;" parent="Dbr4TqRVh1q2xF2fHn3X-166" vertex="1">
          <mxGeometry width="120" height="50" as="geometry">
            <mxRectangle width="120" height="50" as="alternateBounds" />
          </mxGeometry>
        </mxCell>
        <mxCell id="Dbr4TqRVh1q2xF2fHn3X-168" value="Nombre" style="shape=partialRectangle;html=1;whiteSpace=wrap;connectable=0;strokeColor=#b85450;overflow=hidden;fillColor=#f8cecc;top=0;left=0;bottom=0;right=0;pointerEvents=1;fontSize=16;" parent="Dbr4TqRVh1q2xF2fHn3X-166" vertex="1">
          <mxGeometry x="120" width="120" height="50" as="geometry">
            <mxRectangle width="120" height="50" as="alternateBounds" />
          </mxGeometry>
        </mxCell>
        <mxCell id="Dbr4TqRVh1q2xF2fHn3X-169" value="Categoría" style="shape=partialRectangle;html=1;whiteSpace=wrap;connectable=0;strokeColor=#b85450;overflow=hidden;fillColor=#f8cecc;top=0;left=0;bottom=0;right=0;pointerEvents=1;fontSize=16;" parent="Dbr4TqRVh1q2xF2fHn3X-166" vertex="1">
          <mxGeometry x="240" width="120" height="50" as="geometry">
            <mxRectangle width="120" height="50" as="alternateBounds" />
          </mxGeometry>
        </mxCell>
        <mxCell id="Dbr4TqRVh1q2xF2fHn3X-170" value="Precio" style="shape=partialRectangle;html=1;whiteSpace=wrap;connectable=0;strokeColor=#b85450;overflow=hidden;fillColor=#f8cecc;top=0;left=0;bottom=0;right=0;pointerEvents=1;fontSize=16;" parent="Dbr4TqRVh1q2xF2fHn3X-166" vertex="1">
          <mxGeometry x="360" width="120" height="50" as="geometry">
            <mxRectangle width="120" height="50" as="alternateBounds" />
          </mxGeometry>
        </mxCell>
        <mxCell id="Dbr4TqRVh1q2xF2fHn3X-171" value="" style="shape=tableRow;horizontal=0;startSize=0;swimlaneHead=0;swimlaneBody=0;strokeColor=inherit;top=0;left=0;bottom=0;right=0;collapsible=0;dropTarget=0;fillColor=none;points=[[0,0.5],[1,0.5]];portConstraint=eastwest;fontSize=16;" parent="Dbr4TqRVh1q2xF2fHn3X-165" vertex="1">
          <mxGeometry y="50" width="480" height="79" as="geometry" />
        </mxCell>
        <mxCell id="Dbr4TqRVh1q2xF2fHn3X-172" value="1" style="shape=partialRectangle;html=1;whiteSpace=wrap;connectable=0;strokeColor=inherit;overflow=hidden;fillColor=none;top=0;left=0;bottom=0;right=0;pointerEvents=1;fontSize=16;" parent="Dbr4TqRVh1q2xF2fHn3X-171" vertex="1">
          <mxGeometry width="120" height="79" as="geometry">
            <mxRectangle width="120" height="79" as="alternateBounds" />
          </mxGeometry>
        </mxCell>
        <mxCell id="Dbr4TqRVh1q2xF2fHn3X-173" value="LaptopHP" style="shape=partialRectangle;html=1;whiteSpace=wrap;connectable=0;strokeColor=inherit;overflow=hidden;fillColor=none;top=0;left=0;bottom=0;right=0;pointerEvents=1;fontSize=16;" parent="Dbr4TqRVh1q2xF2fHn3X-171" vertex="1">
          <mxGeometry x="120" width="120" height="79" as="geometry">
            <mxRectangle width="120" height="79" as="alternateBounds" />
          </mxGeometry>
        </mxCell>
        <mxCell id="Dbr4TqRVh1q2xF2fHn3X-174" value="Electrónicos" style="shape=partialRectangle;html=1;whiteSpace=wrap;connectable=0;strokeColor=inherit;overflow=hidden;fillColor=none;top=0;left=0;bottom=0;right=0;pointerEvents=1;fontSize=16;" parent="Dbr4TqRVh1q2xF2fHn3X-171" vertex="1">
          <mxGeometry x="240" width="120" height="79" as="geometry">
            <mxRectangle width="120" height="79" as="alternateBounds" />
          </mxGeometry>
        </mxCell>
        <mxCell id="Dbr4TqRVh1q2xF2fHn3X-175" value="800" style="shape=partialRectangle;html=1;whiteSpace=wrap;connectable=0;strokeColor=inherit;overflow=hidden;fillColor=none;top=0;left=0;bottom=0;right=0;pointerEvents=1;fontSize=16;" parent="Dbr4TqRVh1q2xF2fHn3X-171" vertex="1">
          <mxGeometry x="360" width="120" height="79" as="geometry">
            <mxRectangle width="120" height="79" as="alternateBounds" />
          </mxGeometry>
        </mxCell>
        <mxCell id="Dbr4TqRVh1q2xF2fHn3X-176" value="" style="shape=tableRow;horizontal=0;startSize=0;swimlaneHead=0;swimlaneBody=0;strokeColor=inherit;top=0;left=0;bottom=0;right=0;collapsible=0;dropTarget=0;fillColor=none;points=[[0,0.5],[1,0.5]];portConstraint=eastwest;fontSize=16;" parent="Dbr4TqRVh1q2xF2fHn3X-165" vertex="1">
          <mxGeometry y="129" width="480" height="78" as="geometry" />
        </mxCell>
        <mxCell id="Dbr4TqRVh1q2xF2fHn3X-177" value="1" style="shape=partialRectangle;html=1;whiteSpace=wrap;connectable=0;strokeColor=inherit;overflow=hidden;fillColor=none;top=0;left=0;bottom=0;right=0;pointerEvents=1;fontSize=16;" parent="Dbr4TqRVh1q2xF2fHn3X-176" vertex="1">
          <mxGeometry width="120" height="78" as="geometry">
            <mxRectangle width="120" height="78" as="alternateBounds" />
          </mxGeometry>
        </mxCell>
        <mxCell id="Dbr4TqRVh1q2xF2fHn3X-178" value="LaptopHP" style="shape=partialRectangle;html=1;whiteSpace=wrap;connectable=0;strokeColor=inherit;overflow=hidden;fillColor=none;top=0;left=0;bottom=0;right=0;pointerEvents=1;fontSize=16;" parent="Dbr4TqRVh1q2xF2fHn3X-176" vertex="1">
          <mxGeometry x="120" width="120" height="78" as="geometry">
            <mxRectangle width="120" height="78" as="alternateBounds" />
          </mxGeometry>
        </mxCell>
        <mxCell id="Dbr4TqRVh1q2xF2fHn3X-179" value="Infórmatica" style="shape=partialRectangle;html=1;whiteSpace=wrap;connectable=0;strokeColor=inherit;overflow=hidden;fillColor=none;top=0;left=0;bottom=0;right=0;pointerEvents=1;fontSize=16;" parent="Dbr4TqRVh1q2xF2fHn3X-176" vertex="1">
          <mxGeometry x="240" width="120" height="78" as="geometry">
            <mxRectangle width="120" height="78" as="alternateBounds" />
          </mxGeometry>
        </mxCell>
        <mxCell id="Dbr4TqRVh1q2xF2fHn3X-180" value="800" style="shape=partialRectangle;html=1;whiteSpace=wrap;connectable=0;strokeColor=inherit;overflow=hidden;fillColor=none;top=0;left=0;bottom=0;right=0;pointerEvents=1;fontSize=16;" parent="Dbr4TqRVh1q2xF2fHn3X-176" vertex="1">
          <mxGeometry x="360" width="120" height="78" as="geometry">
            <mxRectangle width="120" height="78" as="alternateBounds" />
          </mxGeometry>
        </mxCell>
        <mxCell id="Dbr4TqRVh1q2xF2fHn3X-181" style="shape=tableRow;horizontal=0;startSize=0;swimlaneHead=0;swimlaneBody=0;strokeColor=inherit;top=0;left=0;bottom=0;right=0;collapsible=0;dropTarget=0;fillColor=none;points=[[0,0.5],[1,0.5]];portConstraint=eastwest;fontSize=16;" parent="Dbr4TqRVh1q2xF2fHn3X-165" vertex="1">
          <mxGeometry y="207" width="480" height="79" as="geometry" />
        </mxCell>
        <mxCell id="Dbr4TqRVh1q2xF2fHn3X-182" value="2" style="shape=partialRectangle;html=1;whiteSpace=wrap;connectable=0;strokeColor=inherit;overflow=hidden;fillColor=none;top=0;left=0;bottom=0;right=0;pointerEvents=1;fontSize=16;" parent="Dbr4TqRVh1q2xF2fHn3X-181" vertex="1">
          <mxGeometry width="120" height="79" as="geometry">
            <mxRectangle width="120" height="79" as="alternateBounds" />
          </mxGeometry>
        </mxCell>
        <mxCell id="Dbr4TqRVh1q2xF2fHn3X-183" value="CamisetaNike" style="shape=partialRectangle;html=1;whiteSpace=wrap;connectable=0;strokeColor=inherit;overflow=hidden;fillColor=none;top=0;left=0;bottom=0;right=0;pointerEvents=1;fontSize=16;" parent="Dbr4TqRVh1q2xF2fHn3X-181" vertex="1">
          <mxGeometry x="120" width="120" height="79" as="geometry">
            <mxRectangle width="120" height="79" as="alternateBounds" />
          </mxGeometry>
        </mxCell>
        <mxCell id="Dbr4TqRVh1q2xF2fHn3X-184" value="Ropa" style="shape=partialRectangle;html=1;whiteSpace=wrap;connectable=0;strokeColor=inherit;overflow=hidden;fillColor=none;top=0;left=0;bottom=0;right=0;pointerEvents=1;fontSize=16;" parent="Dbr4TqRVh1q2xF2fHn3X-181" vertex="1">
          <mxGeometry x="240" width="120" height="79" as="geometry">
            <mxRectangle width="120" height="79" as="alternateBounds" />
          </mxGeometry>
        </mxCell>
        <mxCell id="Dbr4TqRVh1q2xF2fHn3X-185" value="30" style="shape=partialRectangle;html=1;whiteSpace=wrap;connectable=0;strokeColor=inherit;overflow=hidden;fillColor=none;top=0;left=0;bottom=0;right=0;pointerEvents=1;fontSize=16;" parent="Dbr4TqRVh1q2xF2fHn3X-181" vertex="1">
          <mxGeometry x="360" width="120" height="79" as="geometry">
            <mxRectangle width="120" height="79" as="alternateBounds" />
          </mxGeometry>
        </mxCell>
        <mxCell id="Dbr4TqRVh1q2xF2fHn3X-186" style="shape=tableRow;horizontal=0;startSize=0;swimlaneHead=0;swimlaneBody=0;strokeColor=inherit;top=0;left=0;bottom=0;right=0;collapsible=0;dropTarget=0;fillColor=none;points=[[0,0.5],[1,0.5]];portConstraint=eastwest;fontSize=16;" parent="Dbr4TqRVh1q2xF2fHn3X-165" vertex="1">
          <mxGeometry y="286" width="480" height="79" as="geometry" />
        </mxCell>
        <mxCell id="Dbr4TqRVh1q2xF2fHn3X-187" value="2" style="shape=partialRectangle;html=1;whiteSpace=wrap;connectable=0;strokeColor=inherit;overflow=hidden;fillColor=none;top=0;left=0;bottom=0;right=0;pointerEvents=1;fontSize=16;" parent="Dbr4TqRVh1q2xF2fHn3X-186" vertex="1">
          <mxGeometry width="120" height="79" as="geometry">
            <mxRectangle width="120" height="79" as="alternateBounds" />
          </mxGeometry>
        </mxCell>
        <mxCell id="Dbr4TqRVh1q2xF2fHn3X-188" value="CamisetaNike" style="shape=partialRectangle;html=1;whiteSpace=wrap;connectable=0;strokeColor=inherit;overflow=hidden;fillColor=none;top=0;left=0;bottom=0;right=0;pointerEvents=1;fontSize=16;" parent="Dbr4TqRVh1q2xF2fHn3X-186" vertex="1">
          <mxGeometry x="120" width="120" height="79" as="geometry">
            <mxRectangle width="120" height="79" as="alternateBounds" />
          </mxGeometry>
        </mxCell>
        <mxCell id="Dbr4TqRVh1q2xF2fHn3X-189" value="Deportes" style="shape=partialRectangle;html=1;whiteSpace=wrap;connectable=0;strokeColor=inherit;overflow=hidden;fillColor=none;top=0;left=0;bottom=0;right=0;pointerEvents=1;fontSize=16;" parent="Dbr4TqRVh1q2xF2fHn3X-186" vertex="1">
          <mxGeometry x="240" width="120" height="79" as="geometry">
            <mxRectangle width="120" height="79" as="alternateBounds" />
          </mxGeometry>
        </mxCell>
        <mxCell id="Dbr4TqRVh1q2xF2fHn3X-190" value="30" style="shape=partialRectangle;html=1;whiteSpace=wrap;connectable=0;strokeColor=inherit;overflow=hidden;fillColor=none;top=0;left=0;bottom=0;right=0;pointerEvents=1;fontSize=16;" parent="Dbr4TqRVh1q2xF2fHn3X-186" vertex="1">
          <mxGeometry x="360" width="120" height="79" as="geometry">
            <mxRectangle width="120" height="79" as="alternateBounds" />
          </mxGeometry>
        </mxCell>
        <mxCell id="Dbr4TqRVh1q2xF2fHn3X-191" style="shape=tableRow;horizontal=0;startSize=0;swimlaneHead=0;swimlaneBody=0;strokeColor=inherit;top=0;left=0;bottom=0;right=0;collapsible=0;dropTarget=0;fillColor=none;points=[[0,0.5],[1,0.5]];portConstraint=eastwest;fontSize=16;" parent="Dbr4TqRVh1q2xF2fHn3X-165" vertex="1">
          <mxGeometry y="365" width="480" height="79" as="geometry" />
        </mxCell>
        <mxCell id="Dbr4TqRVh1q2xF2fHn3X-192" value="3" style="shape=partialRectangle;html=1;whiteSpace=wrap;connectable=0;strokeColor=inherit;overflow=hidden;fillColor=none;top=0;left=0;bottom=0;right=0;pointerEvents=1;fontSize=16;" parent="Dbr4TqRVh1q2xF2fHn3X-191" vertex="1">
          <mxGeometry width="120" height="79" as="geometry">
            <mxRectangle width="120" height="79" as="alternateBounds" />
          </mxGeometry>
        </mxCell>
        <mxCell id="Dbr4TqRVh1q2xF2fHn3X-193" value="Libros" style="shape=partialRectangle;html=1;whiteSpace=wrap;connectable=0;strokeColor=inherit;overflow=hidden;fillColor=none;top=0;left=0;bottom=0;right=0;pointerEvents=1;fontSize=16;" parent="Dbr4TqRVh1q2xF2fHn3X-191" vertex="1">
          <mxGeometry x="120" width="120" height="79" as="geometry">
            <mxRectangle width="120" height="79" as="alternateBounds" />
          </mxGeometry>
        </mxCell>
        <mxCell id="Dbr4TqRVh1q2xF2fHn3X-194" value="Libros" style="shape=partialRectangle;html=1;whiteSpace=wrap;connectable=0;strokeColor=inherit;overflow=hidden;fillColor=none;top=0;left=0;bottom=0;right=0;pointerEvents=1;fontSize=16;" parent="Dbr4TqRVh1q2xF2fHn3X-191" vertex="1">
          <mxGeometry x="240" width="120" height="79" as="geometry">
            <mxRectangle width="120" height="79" as="alternateBounds" />
          </mxGeometry>
        </mxCell>
        <mxCell id="Dbr4TqRVh1q2xF2fHn3X-195" value="20" style="shape=partialRectangle;html=1;whiteSpace=wrap;connectable=0;strokeColor=inherit;overflow=hidden;fillColor=none;top=0;left=0;bottom=0;right=0;pointerEvents=1;fontSize=16;" parent="Dbr4TqRVh1q2xF2fHn3X-191" vertex="1">
          <mxGeometry x="360" width="120" height="79" as="geometry">
            <mxRectangle width="120" height="79" as="alternateBounds" />
          </mxGeometry>
        </mxCell>
        <mxCell id="Dbr4TqRVh1q2xF2fHn3X-196" style="shape=tableRow;horizontal=0;startSize=0;swimlaneHead=0;swimlaneBody=0;strokeColor=inherit;top=0;left=0;bottom=0;right=0;collapsible=0;dropTarget=0;fillColor=none;points=[[0,0.5],[1,0.5]];portConstraint=eastwest;fontSize=16;" parent="Dbr4TqRVh1q2xF2fHn3X-165" vertex="1">
          <mxGeometry y="444" width="480" height="79" as="geometry" />
        </mxCell>
        <mxCell id="Dbr4TqRVh1q2xF2fHn3X-197" value="3" style="shape=partialRectangle;html=1;whiteSpace=wrap;connectable=0;strokeColor=inherit;overflow=hidden;fillColor=none;top=0;left=0;bottom=0;right=0;pointerEvents=1;fontSize=16;" parent="Dbr4TqRVh1q2xF2fHn3X-196" vertex="1">
          <mxGeometry width="120" height="79" as="geometry">
            <mxRectangle width="120" height="79" as="alternateBounds" />
          </mxGeometry>
        </mxCell>
        <mxCell id="Dbr4TqRVh1q2xF2fHn3X-198" value="Ciencia Ficción" style="shape=partialRectangle;html=1;whiteSpace=wrap;connectable=0;strokeColor=inherit;overflow=hidden;fillColor=none;top=0;left=0;bottom=0;right=0;pointerEvents=1;fontSize=16;" parent="Dbr4TqRVh1q2xF2fHn3X-196" vertex="1">
          <mxGeometry x="120" width="120" height="79" as="geometry">
            <mxRectangle width="120" height="79" as="alternateBounds" />
          </mxGeometry>
        </mxCell>
        <mxCell id="Dbr4TqRVh1q2xF2fHn3X-199" value="Ciencia Ficción" style="shape=partialRectangle;html=1;whiteSpace=wrap;connectable=0;strokeColor=inherit;overflow=hidden;fillColor=none;top=0;left=0;bottom=0;right=0;pointerEvents=1;fontSize=16;" parent="Dbr4TqRVh1q2xF2fHn3X-196" vertex="1">
          <mxGeometry x="240" width="120" height="79" as="geometry">
            <mxRectangle width="120" height="79" as="alternateBounds" />
          </mxGeometry>
        </mxCell>
        <mxCell id="Dbr4TqRVh1q2xF2fHn3X-200" value="20" style="shape=partialRectangle;html=1;whiteSpace=wrap;connectable=0;strokeColor=inherit;overflow=hidden;fillColor=none;top=0;left=0;bottom=0;right=0;pointerEvents=1;fontSize=16;" parent="Dbr4TqRVh1q2xF2fHn3X-196" vertex="1">
          <mxGeometry x="360" width="120" height="79" as="geometry">
            <mxRectangle width="120" height="79" as="alternateBounds" />
          </mxGeometry>
        </mxCell>
        <mxCell id="Dbr4TqRVh1q2xF2fHn3X-201" value="&lt;b&gt;&lt;font style=&quot;font-size: 48px;&quot;&gt;3FN&lt;/font&gt;&lt;/b&gt;" style="text;html=1;align=center;verticalAlign=middle;resizable=0;points=[];autosize=1;strokeColor=none;fillColor=none;" parent="1" vertex="1">
          <mxGeometry x="32" y="2412" width="110" height="70" as="geometry" />
        </mxCell>
        <mxCell id="Dbr4TqRVh1q2xF2fHn3X-202" value="" style="shape=table;startSize=0;container=1;collapsible=0;childLayout=tableLayout;fontSize=16;" parent="1" vertex="1">
          <mxGeometry x="710" y="2310" width="360" height="523" as="geometry" />
        </mxCell>
        <mxCell id="Dbr4TqRVh1q2xF2fHn3X-203" value="" style="shape=tableRow;horizontal=0;startSize=0;swimlaneHead=0;swimlaneBody=0;strokeColor=inherit;top=0;left=0;bottom=0;right=0;collapsible=0;dropTarget=0;fillColor=none;points=[[0,0.5],[1,0.5]];portConstraint=eastwest;fontSize=16;" parent="Dbr4TqRVh1q2xF2fHn3X-202" vertex="1">
          <mxGeometry width="360" height="50" as="geometry" />
        </mxCell>
        <mxCell id="Dbr4TqRVh1q2xF2fHn3X-204" value="ProductoID" style="shape=partialRectangle;html=1;whiteSpace=wrap;connectable=0;strokeColor=#d6b656;overflow=hidden;fillColor=#fff2cc;top=0;left=0;bottom=0;right=0;pointerEvents=1;fontSize=16;" parent="Dbr4TqRVh1q2xF2fHn3X-203" vertex="1">
          <mxGeometry width="120" height="50" as="geometry">
            <mxRectangle width="120" height="50" as="alternateBounds" />
          </mxGeometry>
        </mxCell>
        <mxCell id="Dbr4TqRVh1q2xF2fHn3X-205" value="Nombre" style="shape=partialRectangle;html=1;whiteSpace=wrap;connectable=0;strokeColor=#b85450;overflow=hidden;fillColor=#f8cecc;top=0;left=0;bottom=0;right=0;pointerEvents=1;fontSize=16;" parent="Dbr4TqRVh1q2xF2fHn3X-203" vertex="1">
          <mxGeometry x="120" width="120" height="50" as="geometry">
            <mxRectangle width="120" height="50" as="alternateBounds" />
          </mxGeometry>
        </mxCell>
        <mxCell id="Dbr4TqRVh1q2xF2fHn3X-206" value="Categoría" style="shape=partialRectangle;html=1;whiteSpace=wrap;connectable=0;strokeColor=#b85450;overflow=hidden;fillColor=#f8cecc;top=0;left=0;bottom=0;right=0;pointerEvents=1;fontSize=16;" parent="Dbr4TqRVh1q2xF2fHn3X-203" vertex="1">
          <mxGeometry x="240" width="120" height="50" as="geometry">
            <mxRectangle width="120" height="50" as="alternateBounds" />
          </mxGeometry>
        </mxCell>
        <mxCell id="Dbr4TqRVh1q2xF2fHn3X-208" value="" style="shape=tableRow;horizontal=0;startSize=0;swimlaneHead=0;swimlaneBody=0;strokeColor=inherit;top=0;left=0;bottom=0;right=0;collapsible=0;dropTarget=0;fillColor=none;points=[[0,0.5],[1,0.5]];portConstraint=eastwest;fontSize=16;" parent="Dbr4TqRVh1q2xF2fHn3X-202" vertex="1">
          <mxGeometry y="50" width="360" height="79" as="geometry" />
        </mxCell>
        <mxCell id="Dbr4TqRVh1q2xF2fHn3X-209" value="1" style="shape=partialRectangle;html=1;whiteSpace=wrap;connectable=0;strokeColor=inherit;overflow=hidden;fillColor=none;top=0;left=0;bottom=0;right=0;pointerEvents=1;fontSize=16;" parent="Dbr4TqRVh1q2xF2fHn3X-208" vertex="1">
          <mxGeometry width="120" height="79" as="geometry">
            <mxRectangle width="120" height="79" as="alternateBounds" />
          </mxGeometry>
        </mxCell>
        <mxCell id="Dbr4TqRVh1q2xF2fHn3X-210" value="Electrónicos" style="shape=partialRectangle;html=1;whiteSpace=wrap;connectable=0;strokeColor=inherit;overflow=hidden;fillColor=none;top=0;left=0;bottom=0;right=0;pointerEvents=1;fontSize=16;" parent="Dbr4TqRVh1q2xF2fHn3X-208" vertex="1">
          <mxGeometry x="120" width="120" height="79" as="geometry">
            <mxRectangle width="120" height="79" as="alternateBounds" />
          </mxGeometry>
        </mxCell>
        <mxCell id="Dbr4TqRVh1q2xF2fHn3X-211" value="Electrónicos" style="shape=partialRectangle;html=1;whiteSpace=wrap;connectable=0;strokeColor=inherit;overflow=hidden;fillColor=none;top=0;left=0;bottom=0;right=0;pointerEvents=1;fontSize=16;" parent="Dbr4TqRVh1q2xF2fHn3X-208" vertex="1">
          <mxGeometry x="240" width="120" height="79" as="geometry">
            <mxRectangle width="120" height="79" as="alternateBounds" />
          </mxGeometry>
        </mxCell>
        <mxCell id="Dbr4TqRVh1q2xF2fHn3X-213" value="" style="shape=tableRow;horizontal=0;startSize=0;swimlaneHead=0;swimlaneBody=0;strokeColor=inherit;top=0;left=0;bottom=0;right=0;collapsible=0;dropTarget=0;fillColor=none;points=[[0,0.5],[1,0.5]];portConstraint=eastwest;fontSize=16;" parent="Dbr4TqRVh1q2xF2fHn3X-202" vertex="1">
          <mxGeometry y="129" width="360" height="78" as="geometry" />
        </mxCell>
        <mxCell id="Dbr4TqRVh1q2xF2fHn3X-214" value="1" style="shape=partialRectangle;html=1;whiteSpace=wrap;connectable=0;strokeColor=inherit;overflow=hidden;fillColor=none;top=0;left=0;bottom=0;right=0;pointerEvents=1;fontSize=16;" parent="Dbr4TqRVh1q2xF2fHn3X-213" vertex="1">
          <mxGeometry width="120" height="78" as="geometry">
            <mxRectangle width="120" height="78" as="alternateBounds" />
          </mxGeometry>
        </mxCell>
        <mxCell id="Dbr4TqRVh1q2xF2fHn3X-215" value="Informática" style="shape=partialRectangle;html=1;whiteSpace=wrap;connectable=0;strokeColor=inherit;overflow=hidden;fillColor=none;top=0;left=0;bottom=0;right=0;pointerEvents=1;fontSize=16;" parent="Dbr4TqRVh1q2xF2fHn3X-213" vertex="1">
          <mxGeometry x="120" width="120" height="78" as="geometry">
            <mxRectangle width="120" height="78" as="alternateBounds" />
          </mxGeometry>
        </mxCell>
        <mxCell id="Dbr4TqRVh1q2xF2fHn3X-216" value="Infórmatica" style="shape=partialRectangle;html=1;whiteSpace=wrap;connectable=0;strokeColor=inherit;overflow=hidden;fillColor=none;top=0;left=0;bottom=0;right=0;pointerEvents=1;fontSize=16;" parent="Dbr4TqRVh1q2xF2fHn3X-213" vertex="1">
          <mxGeometry x="240" width="120" height="78" as="geometry">
            <mxRectangle width="120" height="78" as="alternateBounds" />
          </mxGeometry>
        </mxCell>
        <mxCell id="Dbr4TqRVh1q2xF2fHn3X-218" style="shape=tableRow;horizontal=0;startSize=0;swimlaneHead=0;swimlaneBody=0;strokeColor=inherit;top=0;left=0;bottom=0;right=0;collapsible=0;dropTarget=0;fillColor=none;points=[[0,0.5],[1,0.5]];portConstraint=eastwest;fontSize=16;" parent="Dbr4TqRVh1q2xF2fHn3X-202" vertex="1">
          <mxGeometry y="207" width="360" height="79" as="geometry" />
        </mxCell>
        <mxCell id="Dbr4TqRVh1q2xF2fHn3X-219" value="2" style="shape=partialRectangle;html=1;whiteSpace=wrap;connectable=0;strokeColor=inherit;overflow=hidden;fillColor=none;top=0;left=0;bottom=0;right=0;pointerEvents=1;fontSize=16;" parent="Dbr4TqRVh1q2xF2fHn3X-218" vertex="1">
          <mxGeometry width="120" height="79" as="geometry">
            <mxRectangle width="120" height="79" as="alternateBounds" />
          </mxGeometry>
        </mxCell>
        <mxCell id="Dbr4TqRVh1q2xF2fHn3X-220" value="Ropa" style="shape=partialRectangle;html=1;whiteSpace=wrap;connectable=0;strokeColor=inherit;overflow=hidden;fillColor=none;top=0;left=0;bottom=0;right=0;pointerEvents=1;fontSize=16;" parent="Dbr4TqRVh1q2xF2fHn3X-218" vertex="1">
          <mxGeometry x="120" width="120" height="79" as="geometry">
            <mxRectangle width="120" height="79" as="alternateBounds" />
          </mxGeometry>
        </mxCell>
        <mxCell id="Dbr4TqRVh1q2xF2fHn3X-221" value="Ropa" style="shape=partialRectangle;html=1;whiteSpace=wrap;connectable=0;strokeColor=inherit;overflow=hidden;fillColor=none;top=0;left=0;bottom=0;right=0;pointerEvents=1;fontSize=16;" parent="Dbr4TqRVh1q2xF2fHn3X-218" vertex="1">
          <mxGeometry x="240" width="120" height="79" as="geometry">
            <mxRectangle width="120" height="79" as="alternateBounds" />
          </mxGeometry>
        </mxCell>
        <mxCell id="Dbr4TqRVh1q2xF2fHn3X-223" style="shape=tableRow;horizontal=0;startSize=0;swimlaneHead=0;swimlaneBody=0;strokeColor=inherit;top=0;left=0;bottom=0;right=0;collapsible=0;dropTarget=0;fillColor=none;points=[[0,0.5],[1,0.5]];portConstraint=eastwest;fontSize=16;" parent="Dbr4TqRVh1q2xF2fHn3X-202" vertex="1">
          <mxGeometry y="286" width="360" height="79" as="geometry" />
        </mxCell>
        <mxCell id="Dbr4TqRVh1q2xF2fHn3X-224" value="2" style="shape=partialRectangle;html=1;whiteSpace=wrap;connectable=0;strokeColor=inherit;overflow=hidden;fillColor=none;top=0;left=0;bottom=0;right=0;pointerEvents=1;fontSize=16;" parent="Dbr4TqRVh1q2xF2fHn3X-223" vertex="1">
          <mxGeometry width="120" height="79" as="geometry">
            <mxRectangle width="120" height="79" as="alternateBounds" />
          </mxGeometry>
        </mxCell>
        <mxCell id="Dbr4TqRVh1q2xF2fHn3X-225" value="Deportes" style="shape=partialRectangle;html=1;whiteSpace=wrap;connectable=0;strokeColor=inherit;overflow=hidden;fillColor=none;top=0;left=0;bottom=0;right=0;pointerEvents=1;fontSize=16;" parent="Dbr4TqRVh1q2xF2fHn3X-223" vertex="1">
          <mxGeometry x="120" width="120" height="79" as="geometry">
            <mxRectangle width="120" height="79" as="alternateBounds" />
          </mxGeometry>
        </mxCell>
        <mxCell id="Dbr4TqRVh1q2xF2fHn3X-226" value="Deportes" style="shape=partialRectangle;html=1;whiteSpace=wrap;connectable=0;strokeColor=inherit;overflow=hidden;fillColor=none;top=0;left=0;bottom=0;right=0;pointerEvents=1;fontSize=16;" parent="Dbr4TqRVh1q2xF2fHn3X-223" vertex="1">
          <mxGeometry x="240" width="120" height="79" as="geometry">
            <mxRectangle width="120" height="79" as="alternateBounds" />
          </mxGeometry>
        </mxCell>
        <mxCell id="Dbr4TqRVh1q2xF2fHn3X-228" style="shape=tableRow;horizontal=0;startSize=0;swimlaneHead=0;swimlaneBody=0;strokeColor=inherit;top=0;left=0;bottom=0;right=0;collapsible=0;dropTarget=0;fillColor=none;points=[[0,0.5],[1,0.5]];portConstraint=eastwest;fontSize=16;" parent="Dbr4TqRVh1q2xF2fHn3X-202" vertex="1">
          <mxGeometry y="365" width="360" height="79" as="geometry" />
        </mxCell>
        <mxCell id="Dbr4TqRVh1q2xF2fHn3X-229" value="3" style="shape=partialRectangle;html=1;whiteSpace=wrap;connectable=0;strokeColor=inherit;overflow=hidden;fillColor=none;top=0;left=0;bottom=0;right=0;pointerEvents=1;fontSize=16;" parent="Dbr4TqRVh1q2xF2fHn3X-228" vertex="1">
          <mxGeometry width="120" height="79" as="geometry">
            <mxRectangle width="120" height="79" as="alternateBounds" />
          </mxGeometry>
        </mxCell>
        <mxCell id="Dbr4TqRVh1q2xF2fHn3X-230" value="Libros" style="shape=partialRectangle;html=1;whiteSpace=wrap;connectable=0;strokeColor=inherit;overflow=hidden;fillColor=none;top=0;left=0;bottom=0;right=0;pointerEvents=1;fontSize=16;" parent="Dbr4TqRVh1q2xF2fHn3X-228" vertex="1">
          <mxGeometry x="120" width="120" height="79" as="geometry">
            <mxRectangle width="120" height="79" as="alternateBounds" />
          </mxGeometry>
        </mxCell>
        <mxCell id="Dbr4TqRVh1q2xF2fHn3X-231" value="Libros" style="shape=partialRectangle;html=1;whiteSpace=wrap;connectable=0;strokeColor=inherit;overflow=hidden;fillColor=none;top=0;left=0;bottom=0;right=0;pointerEvents=1;fontSize=16;" parent="Dbr4TqRVh1q2xF2fHn3X-228" vertex="1">
          <mxGeometry x="240" width="120" height="79" as="geometry">
            <mxRectangle width="120" height="79" as="alternateBounds" />
          </mxGeometry>
        </mxCell>
        <mxCell id="Dbr4TqRVh1q2xF2fHn3X-233" style="shape=tableRow;horizontal=0;startSize=0;swimlaneHead=0;swimlaneBody=0;strokeColor=inherit;top=0;left=0;bottom=0;right=0;collapsible=0;dropTarget=0;fillColor=none;points=[[0,0.5],[1,0.5]];portConstraint=eastwest;fontSize=16;" parent="Dbr4TqRVh1q2xF2fHn3X-202" vertex="1">
          <mxGeometry y="444" width="360" height="79" as="geometry" />
        </mxCell>
        <mxCell id="Dbr4TqRVh1q2xF2fHn3X-234" value="3" style="shape=partialRectangle;html=1;whiteSpace=wrap;connectable=0;strokeColor=inherit;overflow=hidden;fillColor=none;top=0;left=0;bottom=0;right=0;pointerEvents=1;fontSize=16;" parent="Dbr4TqRVh1q2xF2fHn3X-233" vertex="1">
          <mxGeometry width="120" height="79" as="geometry">
            <mxRectangle width="120" height="79" as="alternateBounds" />
          </mxGeometry>
        </mxCell>
        <mxCell id="Dbr4TqRVh1q2xF2fHn3X-235" value="Ciencia Ficción" style="shape=partialRectangle;html=1;whiteSpace=wrap;connectable=0;strokeColor=inherit;overflow=hidden;fillColor=none;top=0;left=0;bottom=0;right=0;pointerEvents=1;fontSize=16;" parent="Dbr4TqRVh1q2xF2fHn3X-233" vertex="1">
          <mxGeometry x="120" width="120" height="79" as="geometry">
            <mxRectangle width="120" height="79" as="alternateBounds" />
          </mxGeometry>
        </mxCell>
        <mxCell id="Dbr4TqRVh1q2xF2fHn3X-236" value="Ciencia Ficción" style="shape=partialRectangle;html=1;whiteSpace=wrap;connectable=0;strokeColor=inherit;overflow=hidden;fillColor=none;top=0;left=0;bottom=0;right=0;pointerEvents=1;fontSize=16;" parent="Dbr4TqRVh1q2xF2fHn3X-233" vertex="1">
          <mxGeometry x="240" width="120" height="79" as="geometry">
            <mxRectangle width="120" height="79" as="alternateBounds" />
          </mxGeometry>
        </mxCell>
        <mxCell id="Dbr4TqRVh1q2xF2fHn3X-252" value="" style="shape=table;startSize=0;container=1;collapsible=0;childLayout=tableLayout;fontSize=16;" parent="1" vertex="1">
          <mxGeometry x="1260" y="2310" width="240" height="523" as="geometry" />
        </mxCell>
        <mxCell id="Dbr4TqRVh1q2xF2fHn3X-253" value="" style="shape=tableRow;horizontal=0;startSize=0;swimlaneHead=0;swimlaneBody=0;strokeColor=inherit;top=0;left=0;bottom=0;right=0;collapsible=0;dropTarget=0;fillColor=none;points=[[0,0.5],[1,0.5]];portConstraint=eastwest;fontSize=16;" parent="Dbr4TqRVh1q2xF2fHn3X-252" vertex="1">
          <mxGeometry width="240" height="50" as="geometry" />
        </mxCell>
        <mxCell id="Dbr4TqRVh1q2xF2fHn3X-254" value="Categoría" style="shape=partialRectangle;html=1;whiteSpace=wrap;connectable=0;strokeColor=#d6b656;overflow=hidden;fillColor=#fff2cc;top=0;left=0;bottom=0;right=0;pointerEvents=1;fontSize=16;" parent="Dbr4TqRVh1q2xF2fHn3X-253" vertex="1">
          <mxGeometry width="120" height="50" as="geometry">
            <mxRectangle width="120" height="50" as="alternateBounds" />
          </mxGeometry>
        </mxCell>
        <mxCell id="Dbr4TqRVh1q2xF2fHn3X-255" value="Precio" style="shape=partialRectangle;html=1;whiteSpace=wrap;connectable=0;strokeColor=#b85450;overflow=hidden;fillColor=#f8cecc;top=0;left=0;bottom=0;right=0;pointerEvents=1;fontSize=16;" parent="Dbr4TqRVh1q2xF2fHn3X-253" vertex="1">
          <mxGeometry x="120" width="120" height="50" as="geometry">
            <mxRectangle width="120" height="50" as="alternateBounds" />
          </mxGeometry>
        </mxCell>
        <mxCell id="Dbr4TqRVh1q2xF2fHn3X-257" value="" style="shape=tableRow;horizontal=0;startSize=0;swimlaneHead=0;swimlaneBody=0;strokeColor=inherit;top=0;left=0;bottom=0;right=0;collapsible=0;dropTarget=0;fillColor=none;points=[[0,0.5],[1,0.5]];portConstraint=eastwest;fontSize=16;" parent="Dbr4TqRVh1q2xF2fHn3X-252" vertex="1">
          <mxGeometry y="50" width="240" height="79" as="geometry" />
        </mxCell>
        <mxCell id="Dbr4TqRVh1q2xF2fHn3X-258" value="1" style="shape=partialRectangle;html=1;whiteSpace=wrap;connectable=0;strokeColor=inherit;overflow=hidden;fillColor=none;top=0;left=0;bottom=0;right=0;pointerEvents=1;fontSize=16;" parent="Dbr4TqRVh1q2xF2fHn3X-257" vertex="1">
          <mxGeometry width="120" height="79" as="geometry">
            <mxRectangle width="120" height="79" as="alternateBounds" />
          </mxGeometry>
        </mxCell>
        <mxCell id="Dbr4TqRVh1q2xF2fHn3X-259" value="800" style="shape=partialRectangle;html=1;whiteSpace=wrap;connectable=0;strokeColor=inherit;overflow=hidden;fillColor=none;top=0;left=0;bottom=0;right=0;pointerEvents=1;fontSize=16;" parent="Dbr4TqRVh1q2xF2fHn3X-257" vertex="1">
          <mxGeometry x="120" width="120" height="79" as="geometry">
            <mxRectangle width="120" height="79" as="alternateBounds" />
          </mxGeometry>
        </mxCell>
        <mxCell id="Dbr4TqRVh1q2xF2fHn3X-261" value="" style="shape=tableRow;horizontal=0;startSize=0;swimlaneHead=0;swimlaneBody=0;strokeColor=inherit;top=0;left=0;bottom=0;right=0;collapsible=0;dropTarget=0;fillColor=none;points=[[0,0.5],[1,0.5]];portConstraint=eastwest;fontSize=16;" parent="Dbr4TqRVh1q2xF2fHn3X-252" vertex="1">
          <mxGeometry y="129" width="240" height="78" as="geometry" />
        </mxCell>
        <mxCell id="Dbr4TqRVh1q2xF2fHn3X-262" value="1" style="shape=partialRectangle;html=1;whiteSpace=wrap;connectable=0;strokeColor=inherit;overflow=hidden;fillColor=none;top=0;left=0;bottom=0;right=0;pointerEvents=1;fontSize=16;" parent="Dbr4TqRVh1q2xF2fHn3X-261" vertex="1">
          <mxGeometry width="120" height="78" as="geometry">
            <mxRectangle width="120" height="78" as="alternateBounds" />
          </mxGeometry>
        </mxCell>
        <mxCell id="Dbr4TqRVh1q2xF2fHn3X-263" value="800" style="shape=partialRectangle;html=1;whiteSpace=wrap;connectable=0;strokeColor=inherit;overflow=hidden;fillColor=none;top=0;left=0;bottom=0;right=0;pointerEvents=1;fontSize=16;" parent="Dbr4TqRVh1q2xF2fHn3X-261" vertex="1">
          <mxGeometry x="120" width="120" height="78" as="geometry">
            <mxRectangle width="120" height="78" as="alternateBounds" />
          </mxGeometry>
        </mxCell>
        <mxCell id="Dbr4TqRVh1q2xF2fHn3X-265" style="shape=tableRow;horizontal=0;startSize=0;swimlaneHead=0;swimlaneBody=0;strokeColor=inherit;top=0;left=0;bottom=0;right=0;collapsible=0;dropTarget=0;fillColor=none;points=[[0,0.5],[1,0.5]];portConstraint=eastwest;fontSize=16;" parent="Dbr4TqRVh1q2xF2fHn3X-252" vertex="1">
          <mxGeometry y="207" width="240" height="79" as="geometry" />
        </mxCell>
        <mxCell id="Dbr4TqRVh1q2xF2fHn3X-266" value="2" style="shape=partialRectangle;html=1;whiteSpace=wrap;connectable=0;strokeColor=inherit;overflow=hidden;fillColor=none;top=0;left=0;bottom=0;right=0;pointerEvents=1;fontSize=16;" parent="Dbr4TqRVh1q2xF2fHn3X-265" vertex="1">
          <mxGeometry width="120" height="79" as="geometry">
            <mxRectangle width="120" height="79" as="alternateBounds" />
          </mxGeometry>
        </mxCell>
        <mxCell id="Dbr4TqRVh1q2xF2fHn3X-267" value="30" style="shape=partialRectangle;html=1;whiteSpace=wrap;connectable=0;strokeColor=inherit;overflow=hidden;fillColor=none;top=0;left=0;bottom=0;right=0;pointerEvents=1;fontSize=16;" parent="Dbr4TqRVh1q2xF2fHn3X-265" vertex="1">
          <mxGeometry x="120" width="120" height="79" as="geometry">
            <mxRectangle width="120" height="79" as="alternateBounds" />
          </mxGeometry>
        </mxCell>
        <mxCell id="Dbr4TqRVh1q2xF2fHn3X-269" style="shape=tableRow;horizontal=0;startSize=0;swimlaneHead=0;swimlaneBody=0;strokeColor=inherit;top=0;left=0;bottom=0;right=0;collapsible=0;dropTarget=0;fillColor=none;points=[[0,0.5],[1,0.5]];portConstraint=eastwest;fontSize=16;" parent="Dbr4TqRVh1q2xF2fHn3X-252" vertex="1">
          <mxGeometry y="286" width="240" height="79" as="geometry" />
        </mxCell>
        <mxCell id="Dbr4TqRVh1q2xF2fHn3X-270" value="2" style="shape=partialRectangle;html=1;whiteSpace=wrap;connectable=0;strokeColor=inherit;overflow=hidden;fillColor=none;top=0;left=0;bottom=0;right=0;pointerEvents=1;fontSize=16;" parent="Dbr4TqRVh1q2xF2fHn3X-269" vertex="1">
          <mxGeometry width="120" height="79" as="geometry">
            <mxRectangle width="120" height="79" as="alternateBounds" />
          </mxGeometry>
        </mxCell>
        <mxCell id="Dbr4TqRVh1q2xF2fHn3X-271" value="30" style="shape=partialRectangle;html=1;whiteSpace=wrap;connectable=0;strokeColor=inherit;overflow=hidden;fillColor=none;top=0;left=0;bottom=0;right=0;pointerEvents=1;fontSize=16;" parent="Dbr4TqRVh1q2xF2fHn3X-269" vertex="1">
          <mxGeometry x="120" width="120" height="79" as="geometry">
            <mxRectangle width="120" height="79" as="alternateBounds" />
          </mxGeometry>
        </mxCell>
        <mxCell id="Dbr4TqRVh1q2xF2fHn3X-273" style="shape=tableRow;horizontal=0;startSize=0;swimlaneHead=0;swimlaneBody=0;strokeColor=inherit;top=0;left=0;bottom=0;right=0;collapsible=0;dropTarget=0;fillColor=none;points=[[0,0.5],[1,0.5]];portConstraint=eastwest;fontSize=16;" parent="Dbr4TqRVh1q2xF2fHn3X-252" vertex="1">
          <mxGeometry y="365" width="240" height="79" as="geometry" />
        </mxCell>
        <mxCell id="Dbr4TqRVh1q2xF2fHn3X-274" value="3" style="shape=partialRectangle;html=1;whiteSpace=wrap;connectable=0;strokeColor=inherit;overflow=hidden;fillColor=none;top=0;left=0;bottom=0;right=0;pointerEvents=1;fontSize=16;" parent="Dbr4TqRVh1q2xF2fHn3X-273" vertex="1">
          <mxGeometry width="120" height="79" as="geometry">
            <mxRectangle width="120" height="79" as="alternateBounds" />
          </mxGeometry>
        </mxCell>
        <mxCell id="Dbr4TqRVh1q2xF2fHn3X-275" value="20" style="shape=partialRectangle;html=1;whiteSpace=wrap;connectable=0;strokeColor=inherit;overflow=hidden;fillColor=none;top=0;left=0;bottom=0;right=0;pointerEvents=1;fontSize=16;" parent="Dbr4TqRVh1q2xF2fHn3X-273" vertex="1">
          <mxGeometry x="120" width="120" height="79" as="geometry">
            <mxRectangle width="120" height="79" as="alternateBounds" />
          </mxGeometry>
        </mxCell>
        <mxCell id="Dbr4TqRVh1q2xF2fHn3X-277" style="shape=tableRow;horizontal=0;startSize=0;swimlaneHead=0;swimlaneBody=0;strokeColor=inherit;top=0;left=0;bottom=0;right=0;collapsible=0;dropTarget=0;fillColor=none;points=[[0,0.5],[1,0.5]];portConstraint=eastwest;fontSize=16;" parent="Dbr4TqRVh1q2xF2fHn3X-252" vertex="1">
          <mxGeometry y="444" width="240" height="79" as="geometry" />
        </mxCell>
        <mxCell id="Dbr4TqRVh1q2xF2fHn3X-278" value="3" style="shape=partialRectangle;html=1;whiteSpace=wrap;connectable=0;strokeColor=inherit;overflow=hidden;fillColor=none;top=0;left=0;bottom=0;right=0;pointerEvents=1;fontSize=16;" parent="Dbr4TqRVh1q2xF2fHn3X-277" vertex="1">
          <mxGeometry width="120" height="79" as="geometry">
            <mxRectangle width="120" height="79" as="alternateBounds" />
          </mxGeometry>
        </mxCell>
        <mxCell id="Dbr4TqRVh1q2xF2fHn3X-279" value="20" style="shape=partialRectangle;html=1;whiteSpace=wrap;connectable=0;strokeColor=inherit;overflow=hidden;fillColor=none;top=0;left=0;bottom=0;right=0;pointerEvents=1;fontSize=16;" parent="Dbr4TqRVh1q2xF2fHn3X-277" vertex="1">
          <mxGeometry x="120" width="120" height="79" as="geometry">
            <mxRectangle width="120" height="79" as="alternateBounds" />
          </mxGeometry>
        </mxCell>
        <mxCell id="Dbr4TqRVh1q2xF2fHn3X-281" value="" style="endArrow=none;html=1;rounded=0;" parent="1" edge="1">
          <mxGeometry width="50" height="50" relative="1" as="geometry">
            <mxPoint x="30" y="2260" as="sourcePoint" />
            <mxPoint x="2260" y="2260" as="targetPoint" />
          </mxGeometry>
        </mxCell>
        <mxCell id="Dbr4TqRVh1q2xF2fHn3X-284" value="" style="endArrow=none;html=1;rounded=0;" parent="1" edge="1">
          <mxGeometry width="50" height="50" relative="1" as="geometry">
            <mxPoint x="180" y="850" as="sourcePoint" />
            <mxPoint x="2050" y="850" as="targetPoint" />
          </mxGeometry>
        </mxCell>
        <mxCell id="Dbr4TqRVh1q2xF2fHn3X-285" value="" style="shape=table;startSize=0;container=1;collapsible=0;childLayout=tableLayout;fontSize=16;" parent="1" vertex="1">
          <mxGeometry x="1690" y="2300" width="240" height="523" as="geometry" />
        </mxCell>
        <mxCell id="Dbr4TqRVh1q2xF2fHn3X-286" value="" style="shape=tableRow;horizontal=0;startSize=0;swimlaneHead=0;swimlaneBody=0;strokeColor=inherit;top=0;left=0;bottom=0;right=0;collapsible=0;dropTarget=0;fillColor=none;points=[[0,0.5],[1,0.5]];portConstraint=eastwest;fontSize=16;" parent="Dbr4TqRVh1q2xF2fHn3X-285" vertex="1">
          <mxGeometry width="240" height="50" as="geometry" />
        </mxCell>
        <mxCell id="Dbr4TqRVh1q2xF2fHn3X-287" value="Nombre Cliente" style="shape=partialRectangle;html=1;whiteSpace=wrap;connectable=0;strokeColor=#d6b656;overflow=hidden;fillColor=#fff2cc;top=0;left=0;bottom=0;right=0;pointerEvents=1;fontSize=16;" parent="Dbr4TqRVh1q2xF2fHn3X-286" vertex="1">
          <mxGeometry width="120" height="50" as="geometry">
            <mxRectangle width="120" height="50" as="alternateBounds" />
          </mxGeometry>
        </mxCell>
        <mxCell id="Dbr4TqRVh1q2xF2fHn3X-288" value="ClienteID" style="shape=partialRectangle;html=1;whiteSpace=wrap;connectable=0;strokeColor=#b85450;overflow=hidden;fillColor=#f8cecc;top=0;left=0;bottom=0;right=0;pointerEvents=1;fontSize=16;" parent="Dbr4TqRVh1q2xF2fHn3X-286" vertex="1">
          <mxGeometry x="120" width="120" height="50" as="geometry">
            <mxRectangle width="120" height="50" as="alternateBounds" />
          </mxGeometry>
        </mxCell>
        <mxCell id="Dbr4TqRVh1q2xF2fHn3X-289" value="" style="shape=tableRow;horizontal=0;startSize=0;swimlaneHead=0;swimlaneBody=0;strokeColor=inherit;top=0;left=0;bottom=0;right=0;collapsible=0;dropTarget=0;fillColor=none;points=[[0,0.5],[1,0.5]];portConstraint=eastwest;fontSize=16;" parent="Dbr4TqRVh1q2xF2fHn3X-285" vertex="1">
          <mxGeometry y="50" width="240" height="79" as="geometry" />
        </mxCell>
        <mxCell id="Dbr4TqRVh1q2xF2fHn3X-290" value="1" style="shape=partialRectangle;html=1;whiteSpace=wrap;connectable=0;strokeColor=inherit;overflow=hidden;fillColor=none;top=0;left=0;bottom=0;right=0;pointerEvents=1;fontSize=16;" parent="Dbr4TqRVh1q2xF2fHn3X-289" vertex="1">
          <mxGeometry width="120" height="79" as="geometry">
            <mxRectangle width="120" height="79" as="alternateBounds" />
          </mxGeometry>
        </mxCell>
        <mxCell id="Dbr4TqRVh1q2xF2fHn3X-291" value="101" style="shape=partialRectangle;html=1;whiteSpace=wrap;connectable=0;strokeColor=inherit;overflow=hidden;fillColor=none;top=0;left=0;bottom=0;right=0;pointerEvents=1;fontSize=16;" parent="Dbr4TqRVh1q2xF2fHn3X-289" vertex="1">
          <mxGeometry x="120" width="120" height="79" as="geometry">
            <mxRectangle width="120" height="79" as="alternateBounds" />
          </mxGeometry>
        </mxCell>
        <mxCell id="Dbr4TqRVh1q2xF2fHn3X-292" value="" style="shape=tableRow;horizontal=0;startSize=0;swimlaneHead=0;swimlaneBody=0;strokeColor=inherit;top=0;left=0;bottom=0;right=0;collapsible=0;dropTarget=0;fillColor=none;points=[[0,0.5],[1,0.5]];portConstraint=eastwest;fontSize=16;" parent="Dbr4TqRVh1q2xF2fHn3X-285" vertex="1">
          <mxGeometry y="129" width="240" height="78" as="geometry" />
        </mxCell>
        <mxCell id="Dbr4TqRVh1q2xF2fHn3X-293" value="1" style="shape=partialRectangle;html=1;whiteSpace=wrap;connectable=0;strokeColor=inherit;overflow=hidden;fillColor=none;top=0;left=0;bottom=0;right=0;pointerEvents=1;fontSize=16;" parent="Dbr4TqRVh1q2xF2fHn3X-292" vertex="1">
          <mxGeometry width="120" height="78" as="geometry">
            <mxRectangle width="120" height="78" as="alternateBounds" />
          </mxGeometry>
        </mxCell>
        <mxCell id="Dbr4TqRVh1q2xF2fHn3X-294" value="101" style="shape=partialRectangle;html=1;whiteSpace=wrap;connectable=0;strokeColor=inherit;overflow=hidden;fillColor=none;top=0;left=0;bottom=0;right=0;pointerEvents=1;fontSize=16;" parent="Dbr4TqRVh1q2xF2fHn3X-292" vertex="1">
          <mxGeometry x="120" width="120" height="78" as="geometry">
            <mxRectangle width="120" height="78" as="alternateBounds" />
          </mxGeometry>
        </mxCell>
        <mxCell id="Dbr4TqRVh1q2xF2fHn3X-295" style="shape=tableRow;horizontal=0;startSize=0;swimlaneHead=0;swimlaneBody=0;strokeColor=inherit;top=0;left=0;bottom=0;right=0;collapsible=0;dropTarget=0;fillColor=none;points=[[0,0.5],[1,0.5]];portConstraint=eastwest;fontSize=16;" parent="Dbr4TqRVh1q2xF2fHn3X-285" vertex="1">
          <mxGeometry y="207" width="240" height="79" as="geometry" />
        </mxCell>
        <mxCell id="Dbr4TqRVh1q2xF2fHn3X-296" value="2" style="shape=partialRectangle;html=1;whiteSpace=wrap;connectable=0;strokeColor=inherit;overflow=hidden;fillColor=none;top=0;left=0;bottom=0;right=0;pointerEvents=1;fontSize=16;" parent="Dbr4TqRVh1q2xF2fHn3X-295" vertex="1">
          <mxGeometry width="120" height="79" as="geometry">
            <mxRectangle width="120" height="79" as="alternateBounds" />
          </mxGeometry>
        </mxCell>
        <mxCell id="Dbr4TqRVh1q2xF2fHn3X-297" value="102" style="shape=partialRectangle;html=1;whiteSpace=wrap;connectable=0;strokeColor=inherit;overflow=hidden;fillColor=none;top=0;left=0;bottom=0;right=0;pointerEvents=1;fontSize=16;" parent="Dbr4TqRVh1q2xF2fHn3X-295" vertex="1">
          <mxGeometry x="120" width="120" height="79" as="geometry">
            <mxRectangle width="120" height="79" as="alternateBounds" />
          </mxGeometry>
        </mxCell>
        <mxCell id="Dbr4TqRVh1q2xF2fHn3X-298" style="shape=tableRow;horizontal=0;startSize=0;swimlaneHead=0;swimlaneBody=0;strokeColor=inherit;top=0;left=0;bottom=0;right=0;collapsible=0;dropTarget=0;fillColor=none;points=[[0,0.5],[1,0.5]];portConstraint=eastwest;fontSize=16;" parent="Dbr4TqRVh1q2xF2fHn3X-285" vertex="1">
          <mxGeometry y="286" width="240" height="79" as="geometry" />
        </mxCell>
        <mxCell id="Dbr4TqRVh1q2xF2fHn3X-299" value="2" style="shape=partialRectangle;html=1;whiteSpace=wrap;connectable=0;strokeColor=inherit;overflow=hidden;fillColor=none;top=0;left=0;bottom=0;right=0;pointerEvents=1;fontSize=16;" parent="Dbr4TqRVh1q2xF2fHn3X-298" vertex="1">
          <mxGeometry width="120" height="79" as="geometry">
            <mxRectangle width="120" height="79" as="alternateBounds" />
          </mxGeometry>
        </mxCell>
        <mxCell id="Dbr4TqRVh1q2xF2fHn3X-300" value="102" style="shape=partialRectangle;html=1;whiteSpace=wrap;connectable=0;strokeColor=inherit;overflow=hidden;fillColor=none;top=0;left=0;bottom=0;right=0;pointerEvents=1;fontSize=16;" parent="Dbr4TqRVh1q2xF2fHn3X-298" vertex="1">
          <mxGeometry x="120" width="120" height="79" as="geometry">
            <mxRectangle width="120" height="79" as="alternateBounds" />
          </mxGeometry>
        </mxCell>
        <mxCell id="Dbr4TqRVh1q2xF2fHn3X-301" style="shape=tableRow;horizontal=0;startSize=0;swimlaneHead=0;swimlaneBody=0;strokeColor=inherit;top=0;left=0;bottom=0;right=0;collapsible=0;dropTarget=0;fillColor=none;points=[[0,0.5],[1,0.5]];portConstraint=eastwest;fontSize=16;" parent="Dbr4TqRVh1q2xF2fHn3X-285" vertex="1">
          <mxGeometry y="365" width="240" height="79" as="geometry" />
        </mxCell>
        <mxCell id="Dbr4TqRVh1q2xF2fHn3X-302" value="3" style="shape=partialRectangle;html=1;whiteSpace=wrap;connectable=0;strokeColor=inherit;overflow=hidden;fillColor=none;top=0;left=0;bottom=0;right=0;pointerEvents=1;fontSize=16;" parent="Dbr4TqRVh1q2xF2fHn3X-301" vertex="1">
          <mxGeometry width="120" height="79" as="geometry">
            <mxRectangle width="120" height="79" as="alternateBounds" />
          </mxGeometry>
        </mxCell>
        <mxCell id="Dbr4TqRVh1q2xF2fHn3X-303" value="101" style="shape=partialRectangle;html=1;whiteSpace=wrap;connectable=0;strokeColor=inherit;overflow=hidden;fillColor=none;top=0;left=0;bottom=0;right=0;pointerEvents=1;fontSize=16;" parent="Dbr4TqRVh1q2xF2fHn3X-301" vertex="1">
          <mxGeometry x="120" width="120" height="79" as="geometry">
            <mxRectangle width="120" height="79" as="alternateBounds" />
          </mxGeometry>
        </mxCell>
        <mxCell id="Dbr4TqRVh1q2xF2fHn3X-304" style="shape=tableRow;horizontal=0;startSize=0;swimlaneHead=0;swimlaneBody=0;strokeColor=inherit;top=0;left=0;bottom=0;right=0;collapsible=0;dropTarget=0;fillColor=none;points=[[0,0.5],[1,0.5]];portConstraint=eastwest;fontSize=16;" parent="Dbr4TqRVh1q2xF2fHn3X-285" vertex="1">
          <mxGeometry y="444" width="240" height="79" as="geometry" />
        </mxCell>
        <mxCell id="Dbr4TqRVh1q2xF2fHn3X-305" value="3" style="shape=partialRectangle;html=1;whiteSpace=wrap;connectable=0;strokeColor=inherit;overflow=hidden;fillColor=none;top=0;left=0;bottom=0;right=0;pointerEvents=1;fontSize=16;" parent="Dbr4TqRVh1q2xF2fHn3X-304" vertex="1">
          <mxGeometry width="120" height="79" as="geometry">
            <mxRectangle width="120" height="79" as="alternateBounds" />
          </mxGeometry>
        </mxCell>
        <mxCell id="Dbr4TqRVh1q2xF2fHn3X-306" value="101" style="shape=partialRectangle;html=1;whiteSpace=wrap;connectable=0;strokeColor=inherit;overflow=hidden;fillColor=none;top=0;left=0;bottom=0;right=0;pointerEvents=1;fontSize=16;" parent="Dbr4TqRVh1q2xF2fHn3X-304" vertex="1">
          <mxGeometry x="120" width="120" height="79" as="geometry">
            <mxRectangle width="120" height="79" as="alternateBounds" />
          </mxGeometry>
        </mxCell>
        <mxCell id="Dbr4TqRVh1q2xF2fHn3X-307" value="" style="shape=table;startSize=0;container=1;collapsible=0;childLayout=tableLayout;fontSize=16;" parent="1" vertex="1">
          <mxGeometry x="2080" y="2300" width="240" height="523" as="geometry" />
        </mxCell>
        <mxCell id="Dbr4TqRVh1q2xF2fHn3X-308" value="" style="shape=tableRow;horizontal=0;startSize=0;swimlaneHead=0;swimlaneBody=0;strokeColor=inherit;top=0;left=0;bottom=0;right=0;collapsible=0;dropTarget=0;fillColor=none;points=[[0,0.5],[1,0.5]];portConstraint=eastwest;fontSize=16;" parent="Dbr4TqRVh1q2xF2fHn3X-307" vertex="1">
          <mxGeometry width="240" height="50" as="geometry" />
        </mxCell>
        <mxCell id="Dbr4TqRVh1q2xF2fHn3X-309" value="Nombre Cliente" style="shape=partialRectangle;html=1;whiteSpace=wrap;connectable=0;strokeColor=#d6b656;overflow=hidden;fillColor=#fff2cc;top=0;left=0;bottom=0;right=0;pointerEvents=1;fontSize=16;" parent="Dbr4TqRVh1q2xF2fHn3X-308" vertex="1">
          <mxGeometry width="120" height="50" as="geometry">
            <mxRectangle width="120" height="50" as="alternateBounds" />
          </mxGeometry>
        </mxCell>
        <mxCell id="Dbr4TqRVh1q2xF2fHn3X-310" value="ClienteID" style="shape=partialRectangle;html=1;whiteSpace=wrap;connectable=0;strokeColor=#b85450;overflow=hidden;fillColor=#f8cecc;top=0;left=0;bottom=0;right=0;pointerEvents=1;fontSize=16;" parent="Dbr4TqRVh1q2xF2fHn3X-308" vertex="1">
          <mxGeometry x="120" width="120" height="50" as="geometry">
            <mxRectangle width="120" height="50" as="alternateBounds" />
          </mxGeometry>
        </mxCell>
        <mxCell id="Dbr4TqRVh1q2xF2fHn3X-311" value="" style="shape=tableRow;horizontal=0;startSize=0;swimlaneHead=0;swimlaneBody=0;strokeColor=inherit;top=0;left=0;bottom=0;right=0;collapsible=0;dropTarget=0;fillColor=none;points=[[0,0.5],[1,0.5]];portConstraint=eastwest;fontSize=16;" parent="Dbr4TqRVh1q2xF2fHn3X-307" vertex="1">
          <mxGeometry y="50" width="240" height="79" as="geometry" />
        </mxCell>
        <mxCell id="Dbr4TqRVh1q2xF2fHn3X-312" value="1" style="shape=partialRectangle;html=1;whiteSpace=wrap;connectable=0;strokeColor=inherit;overflow=hidden;fillColor=none;top=0;left=0;bottom=0;right=0;pointerEvents=1;fontSize=16;" parent="Dbr4TqRVh1q2xF2fHn3X-311" vertex="1">
          <mxGeometry width="120" height="79" as="geometry">
            <mxRectangle width="120" height="79" as="alternateBounds" />
          </mxGeometry>
        </mxCell>
        <mxCell id="Dbr4TqRVh1q2xF2fHn3X-313" value="101" style="shape=partialRectangle;html=1;whiteSpace=wrap;connectable=0;strokeColor=inherit;overflow=hidden;fillColor=none;top=0;left=0;bottom=0;right=0;pointerEvents=1;fontSize=16;" parent="Dbr4TqRVh1q2xF2fHn3X-311" vertex="1">
          <mxGeometry x="120" width="120" height="79" as="geometry">
            <mxRectangle width="120" height="79" as="alternateBounds" />
          </mxGeometry>
        </mxCell>
        <mxCell id="Dbr4TqRVh1q2xF2fHn3X-314" value="" style="shape=tableRow;horizontal=0;startSize=0;swimlaneHead=0;swimlaneBody=0;strokeColor=inherit;top=0;left=0;bottom=0;right=0;collapsible=0;dropTarget=0;fillColor=none;points=[[0,0.5],[1,0.5]];portConstraint=eastwest;fontSize=16;" parent="Dbr4TqRVh1q2xF2fHn3X-307" vertex="1">
          <mxGeometry y="129" width="240" height="78" as="geometry" />
        </mxCell>
        <mxCell id="Dbr4TqRVh1q2xF2fHn3X-315" value="1" style="shape=partialRectangle;html=1;whiteSpace=wrap;connectable=0;strokeColor=inherit;overflow=hidden;fillColor=none;top=0;left=0;bottom=0;right=0;pointerEvents=1;fontSize=16;" parent="Dbr4TqRVh1q2xF2fHn3X-314" vertex="1">
          <mxGeometry width="120" height="78" as="geometry">
            <mxRectangle width="120" height="78" as="alternateBounds" />
          </mxGeometry>
        </mxCell>
        <mxCell id="Dbr4TqRVh1q2xF2fHn3X-316" value="101" style="shape=partialRectangle;html=1;whiteSpace=wrap;connectable=0;strokeColor=inherit;overflow=hidden;fillColor=none;top=0;left=0;bottom=0;right=0;pointerEvents=1;fontSize=16;" parent="Dbr4TqRVh1q2xF2fHn3X-314" vertex="1">
          <mxGeometry x="120" width="120" height="78" as="geometry">
            <mxRectangle width="120" height="78" as="alternateBounds" />
          </mxGeometry>
        </mxCell>
        <mxCell id="Dbr4TqRVh1q2xF2fHn3X-317" style="shape=tableRow;horizontal=0;startSize=0;swimlaneHead=0;swimlaneBody=0;strokeColor=inherit;top=0;left=0;bottom=0;right=0;collapsible=0;dropTarget=0;fillColor=none;points=[[0,0.5],[1,0.5]];portConstraint=eastwest;fontSize=16;" parent="Dbr4TqRVh1q2xF2fHn3X-307" vertex="1">
          <mxGeometry y="207" width="240" height="79" as="geometry" />
        </mxCell>
        <mxCell id="Dbr4TqRVh1q2xF2fHn3X-318" value="2" style="shape=partialRectangle;html=1;whiteSpace=wrap;connectable=0;strokeColor=inherit;overflow=hidden;fillColor=none;top=0;left=0;bottom=0;right=0;pointerEvents=1;fontSize=16;" parent="Dbr4TqRVh1q2xF2fHn3X-317" vertex="1">
          <mxGeometry width="120" height="79" as="geometry">
            <mxRectangle width="120" height="79" as="alternateBounds" />
          </mxGeometry>
        </mxCell>
        <mxCell id="Dbr4TqRVh1q2xF2fHn3X-319" value="102" style="shape=partialRectangle;html=1;whiteSpace=wrap;connectable=0;strokeColor=inherit;overflow=hidden;fillColor=none;top=0;left=0;bottom=0;right=0;pointerEvents=1;fontSize=16;" parent="Dbr4TqRVh1q2xF2fHn3X-317" vertex="1">
          <mxGeometry x="120" width="120" height="79" as="geometry">
            <mxRectangle width="120" height="79" as="alternateBounds" />
          </mxGeometry>
        </mxCell>
        <mxCell id="Dbr4TqRVh1q2xF2fHn3X-320" style="shape=tableRow;horizontal=0;startSize=0;swimlaneHead=0;swimlaneBody=0;strokeColor=inherit;top=0;left=0;bottom=0;right=0;collapsible=0;dropTarget=0;fillColor=none;points=[[0,0.5],[1,0.5]];portConstraint=eastwest;fontSize=16;" parent="Dbr4TqRVh1q2xF2fHn3X-307" vertex="1">
          <mxGeometry y="286" width="240" height="79" as="geometry" />
        </mxCell>
        <mxCell id="Dbr4TqRVh1q2xF2fHn3X-321" value="2" style="shape=partialRectangle;html=1;whiteSpace=wrap;connectable=0;strokeColor=inherit;overflow=hidden;fillColor=none;top=0;left=0;bottom=0;right=0;pointerEvents=1;fontSize=16;" parent="Dbr4TqRVh1q2xF2fHn3X-320" vertex="1">
          <mxGeometry width="120" height="79" as="geometry">
            <mxRectangle width="120" height="79" as="alternateBounds" />
          </mxGeometry>
        </mxCell>
        <mxCell id="Dbr4TqRVh1q2xF2fHn3X-322" value="102" style="shape=partialRectangle;html=1;whiteSpace=wrap;connectable=0;strokeColor=inherit;overflow=hidden;fillColor=none;top=0;left=0;bottom=0;right=0;pointerEvents=1;fontSize=16;" parent="Dbr4TqRVh1q2xF2fHn3X-320" vertex="1">
          <mxGeometry x="120" width="120" height="79" as="geometry">
            <mxRectangle width="120" height="79" as="alternateBounds" />
          </mxGeometry>
        </mxCell>
        <mxCell id="Dbr4TqRVh1q2xF2fHn3X-323" style="shape=tableRow;horizontal=0;startSize=0;swimlaneHead=0;swimlaneBody=0;strokeColor=inherit;top=0;left=0;bottom=0;right=0;collapsible=0;dropTarget=0;fillColor=none;points=[[0,0.5],[1,0.5]];portConstraint=eastwest;fontSize=16;" parent="Dbr4TqRVh1q2xF2fHn3X-307" vertex="1">
          <mxGeometry y="365" width="240" height="79" as="geometry" />
        </mxCell>
        <mxCell id="Dbr4TqRVh1q2xF2fHn3X-324" value="3" style="shape=partialRectangle;html=1;whiteSpace=wrap;connectable=0;strokeColor=inherit;overflow=hidden;fillColor=none;top=0;left=0;bottom=0;right=0;pointerEvents=1;fontSize=16;" parent="Dbr4TqRVh1q2xF2fHn3X-323" vertex="1">
          <mxGeometry width="120" height="79" as="geometry">
            <mxRectangle width="120" height="79" as="alternateBounds" />
          </mxGeometry>
        </mxCell>
        <mxCell id="Dbr4TqRVh1q2xF2fHn3X-325" value="101" style="shape=partialRectangle;html=1;whiteSpace=wrap;connectable=0;strokeColor=inherit;overflow=hidden;fillColor=none;top=0;left=0;bottom=0;right=0;pointerEvents=1;fontSize=16;" parent="Dbr4TqRVh1q2xF2fHn3X-323" vertex="1">
          <mxGeometry x="120" width="120" height="79" as="geometry">
            <mxRectangle width="120" height="79" as="alternateBounds" />
          </mxGeometry>
        </mxCell>
        <mxCell id="Dbr4TqRVh1q2xF2fHn3X-326" style="shape=tableRow;horizontal=0;startSize=0;swimlaneHead=0;swimlaneBody=0;strokeColor=inherit;top=0;left=0;bottom=0;right=0;collapsible=0;dropTarget=0;fillColor=none;points=[[0,0.5],[1,0.5]];portConstraint=eastwest;fontSize=16;" parent="Dbr4TqRVh1q2xF2fHn3X-307" vertex="1">
          <mxGeometry y="444" width="240" height="79" as="geometry" />
        </mxCell>
        <mxCell id="Dbr4TqRVh1q2xF2fHn3X-327" value="3" style="shape=partialRectangle;html=1;whiteSpace=wrap;connectable=0;strokeColor=inherit;overflow=hidden;fillColor=none;top=0;left=0;bottom=0;right=0;pointerEvents=1;fontSize=16;" parent="Dbr4TqRVh1q2xF2fHn3X-326" vertex="1">
          <mxGeometry width="120" height="79" as="geometry">
            <mxRectangle width="120" height="79" as="alternateBounds" />
          </mxGeometry>
        </mxCell>
        <mxCell id="Dbr4TqRVh1q2xF2fHn3X-328" value="101" style="shape=partialRectangle;html=1;whiteSpace=wrap;connectable=0;strokeColor=inherit;overflow=hidden;fillColor=none;top=0;left=0;bottom=0;right=0;pointerEvents=1;fontSize=16;" parent="Dbr4TqRVh1q2xF2fHn3X-326" vertex="1">
          <mxGeometry x="120" width="120" height="79" as="geometry">
            <mxRectangle width="120" height="79" as="alternateBounds" />
          </mxGeometry>
        </mxCell>
        <mxCell id="BlPDmiPcNX0y88MQMaHG-1" value="" style="shape=table;startSize=0;container=1;collapsible=0;childLayout=tableLayout;fontSize=16;" vertex="1" parent="1">
          <mxGeometry x="740" y="2940" width="240" height="523" as="geometry" />
        </mxCell>
        <mxCell id="BlPDmiPcNX0y88MQMaHG-2" value="" style="shape=tableRow;horizontal=0;startSize=0;swimlaneHead=0;swimlaneBody=0;strokeColor=inherit;top=0;left=0;bottom=0;right=0;collapsible=0;dropTarget=0;fillColor=none;points=[[0,0.5],[1,0.5]];portConstraint=eastwest;fontSize=16;" vertex="1" parent="BlPDmiPcNX0y88MQMaHG-1">
          <mxGeometry width="240" height="50" as="geometry" />
        </mxCell>
        <mxCell id="BlPDmiPcNX0y88MQMaHG-3" value="Calle" style="shape=partialRectangle;html=1;whiteSpace=wrap;connectable=0;strokeColor=#d6b656;overflow=hidden;fillColor=#fff2cc;top=0;left=0;bottom=0;right=0;pointerEvents=1;fontSize=16;" vertex="1" parent="BlPDmiPcNX0y88MQMaHG-2">
          <mxGeometry width="120" height="50" as="geometry">
            <mxRectangle width="120" height="50" as="alternateBounds" />
          </mxGeometry>
        </mxCell>
        <mxCell id="BlPDmiPcNX0y88MQMaHG-4" value="Ciudad" style="shape=partialRectangle;html=1;whiteSpace=wrap;connectable=0;strokeColor=#b85450;overflow=hidden;fillColor=#f8cecc;top=0;left=0;bottom=0;right=0;pointerEvents=1;fontSize=16;" vertex="1" parent="BlPDmiPcNX0y88MQMaHG-2">
          <mxGeometry x="120" width="120" height="50" as="geometry">
            <mxRectangle width="120" height="50" as="alternateBounds" />
          </mxGeometry>
        </mxCell>
        <mxCell id="BlPDmiPcNX0y88MQMaHG-5" value="" style="shape=tableRow;horizontal=0;startSize=0;swimlaneHead=0;swimlaneBody=0;strokeColor=inherit;top=0;left=0;bottom=0;right=0;collapsible=0;dropTarget=0;fillColor=none;points=[[0,0.5],[1,0.5]];portConstraint=eastwest;fontSize=16;" vertex="1" parent="BlPDmiPcNX0y88MQMaHG-1">
          <mxGeometry y="50" width="240" height="79" as="geometry" />
        </mxCell>
        <mxCell id="BlPDmiPcNX0y88MQMaHG-6" value="Calle 1" style="shape=partialRectangle;html=1;whiteSpace=wrap;connectable=0;strokeColor=inherit;overflow=hidden;fillColor=none;top=0;left=0;bottom=0;right=0;pointerEvents=1;fontSize=16;" vertex="1" parent="BlPDmiPcNX0y88MQMaHG-5">
          <mxGeometry width="120" height="79" as="geometry">
            <mxRectangle width="120" height="79" as="alternateBounds" />
          </mxGeometry>
        </mxCell>
        <mxCell id="BlPDmiPcNX0y88MQMaHG-7" value="800" style="shape=partialRectangle;html=1;whiteSpace=wrap;connectable=0;strokeColor=inherit;overflow=hidden;fillColor=none;top=0;left=0;bottom=0;right=0;pointerEvents=1;fontSize=16;" vertex="1" parent="BlPDmiPcNX0y88MQMaHG-5">
          <mxGeometry x="120" width="120" height="79" as="geometry">
            <mxRectangle width="120" height="79" as="alternateBounds" />
          </mxGeometry>
        </mxCell>
        <mxCell id="BlPDmiPcNX0y88MQMaHG-8" value="" style="shape=tableRow;horizontal=0;startSize=0;swimlaneHead=0;swimlaneBody=0;strokeColor=inherit;top=0;left=0;bottom=0;right=0;collapsible=0;dropTarget=0;fillColor=none;points=[[0,0.5],[1,0.5]];portConstraint=eastwest;fontSize=16;" vertex="1" parent="BlPDmiPcNX0y88MQMaHG-1">
          <mxGeometry y="129" width="240" height="78" as="geometry" />
        </mxCell>
        <mxCell id="BlPDmiPcNX0y88MQMaHG-9" value="Calle 2" style="shape=partialRectangle;html=1;whiteSpace=wrap;connectable=0;strokeColor=inherit;overflow=hidden;fillColor=none;top=0;left=0;bottom=0;right=0;pointerEvents=1;fontSize=16;" vertex="1" parent="BlPDmiPcNX0y88MQMaHG-8">
          <mxGeometry width="120" height="78" as="geometry">
            <mxRectangle width="120" height="78" as="alternateBounds" />
          </mxGeometry>
        </mxCell>
        <mxCell id="BlPDmiPcNX0y88MQMaHG-10" value="800" style="shape=partialRectangle;html=1;whiteSpace=wrap;connectable=0;strokeColor=inherit;overflow=hidden;fillColor=none;top=0;left=0;bottom=0;right=0;pointerEvents=1;fontSize=16;" vertex="1" parent="BlPDmiPcNX0y88MQMaHG-8">
          <mxGeometry x="120" width="120" height="78" as="geometry">
            <mxRectangle width="120" height="78" as="alternateBounds" />
          </mxGeometry>
        </mxCell>
        <mxCell id="BlPDmiPcNX0y88MQMaHG-11" style="shape=tableRow;horizontal=0;startSize=0;swimlaneHead=0;swimlaneBody=0;strokeColor=inherit;top=0;left=0;bottom=0;right=0;collapsible=0;dropTarget=0;fillColor=none;points=[[0,0.5],[1,0.5]];portConstraint=eastwest;fontSize=16;" vertex="1" parent="BlPDmiPcNX0y88MQMaHG-1">
          <mxGeometry y="207" width="240" height="79" as="geometry" />
        </mxCell>
        <mxCell id="BlPDmiPcNX0y88MQMaHG-12" value="Calle 3" style="shape=partialRectangle;html=1;whiteSpace=wrap;connectable=0;strokeColor=inherit;overflow=hidden;fillColor=none;top=0;left=0;bottom=0;right=0;pointerEvents=1;fontSize=16;" vertex="1" parent="BlPDmiPcNX0y88MQMaHG-11">
          <mxGeometry width="120" height="79" as="geometry">
            <mxRectangle width="120" height="79" as="alternateBounds" />
          </mxGeometry>
        </mxCell>
        <mxCell id="BlPDmiPcNX0y88MQMaHG-13" value="30" style="shape=partialRectangle;html=1;whiteSpace=wrap;connectable=0;strokeColor=inherit;overflow=hidden;fillColor=none;top=0;left=0;bottom=0;right=0;pointerEvents=1;fontSize=16;" vertex="1" parent="BlPDmiPcNX0y88MQMaHG-11">
          <mxGeometry x="120" width="120" height="79" as="geometry">
            <mxRectangle width="120" height="79" as="alternateBounds" />
          </mxGeometry>
        </mxCell>
        <mxCell id="BlPDmiPcNX0y88MQMaHG-14" style="shape=tableRow;horizontal=0;startSize=0;swimlaneHead=0;swimlaneBody=0;strokeColor=inherit;top=0;left=0;bottom=0;right=0;collapsible=0;dropTarget=0;fillColor=none;points=[[0,0.5],[1,0.5]];portConstraint=eastwest;fontSize=16;" vertex="1" parent="BlPDmiPcNX0y88MQMaHG-1">
          <mxGeometry y="286" width="240" height="79" as="geometry" />
        </mxCell>
        <mxCell id="BlPDmiPcNX0y88MQMaHG-15" value="Calle 1" style="shape=partialRectangle;html=1;whiteSpace=wrap;connectable=0;strokeColor=inherit;overflow=hidden;fillColor=none;top=0;left=0;bottom=0;right=0;pointerEvents=1;fontSize=16;" vertex="1" parent="BlPDmiPcNX0y88MQMaHG-14">
          <mxGeometry width="120" height="79" as="geometry">
            <mxRectangle width="120" height="79" as="alternateBounds" />
          </mxGeometry>
        </mxCell>
        <mxCell id="BlPDmiPcNX0y88MQMaHG-16" value="30" style="shape=partialRectangle;html=1;whiteSpace=wrap;connectable=0;strokeColor=inherit;overflow=hidden;fillColor=none;top=0;left=0;bottom=0;right=0;pointerEvents=1;fontSize=16;" vertex="1" parent="BlPDmiPcNX0y88MQMaHG-14">
          <mxGeometry x="120" width="120" height="79" as="geometry">
            <mxRectangle width="120" height="79" as="alternateBounds" />
          </mxGeometry>
        </mxCell>
        <mxCell id="BlPDmiPcNX0y88MQMaHG-17" style="shape=tableRow;horizontal=0;startSize=0;swimlaneHead=0;swimlaneBody=0;strokeColor=inherit;top=0;left=0;bottom=0;right=0;collapsible=0;dropTarget=0;fillColor=none;points=[[0,0.5],[1,0.5]];portConstraint=eastwest;fontSize=16;" vertex="1" parent="BlPDmiPcNX0y88MQMaHG-1">
          <mxGeometry y="365" width="240" height="79" as="geometry" />
        </mxCell>
        <mxCell id="BlPDmiPcNX0y88MQMaHG-18" value="Calle 3" style="shape=partialRectangle;html=1;whiteSpace=wrap;connectable=0;strokeColor=inherit;overflow=hidden;fillColor=none;top=0;left=0;bottom=0;right=0;pointerEvents=1;fontSize=16;" vertex="1" parent="BlPDmiPcNX0y88MQMaHG-17">
          <mxGeometry width="120" height="79" as="geometry">
            <mxRectangle width="120" height="79" as="alternateBounds" />
          </mxGeometry>
        </mxCell>
        <mxCell id="BlPDmiPcNX0y88MQMaHG-19" value="20" style="shape=partialRectangle;html=1;whiteSpace=wrap;connectable=0;strokeColor=inherit;overflow=hidden;fillColor=none;top=0;left=0;bottom=0;right=0;pointerEvents=1;fontSize=16;" vertex="1" parent="BlPDmiPcNX0y88MQMaHG-17">
          <mxGeometry x="120" width="120" height="79" as="geometry">
            <mxRectangle width="120" height="79" as="alternateBounds" />
          </mxGeometry>
        </mxCell>
        <mxCell id="BlPDmiPcNX0y88MQMaHG-20" style="shape=tableRow;horizontal=0;startSize=0;swimlaneHead=0;swimlaneBody=0;strokeColor=inherit;top=0;left=0;bottom=0;right=0;collapsible=0;dropTarget=0;fillColor=none;points=[[0,0.5],[1,0.5]];portConstraint=eastwest;fontSize=16;" vertex="1" parent="BlPDmiPcNX0y88MQMaHG-1">
          <mxGeometry y="444" width="240" height="79" as="geometry" />
        </mxCell>
        <mxCell id="BlPDmiPcNX0y88MQMaHG-21" value="Calle 3" style="shape=partialRectangle;html=1;whiteSpace=wrap;connectable=0;strokeColor=inherit;overflow=hidden;fillColor=none;top=0;left=0;bottom=0;right=0;pointerEvents=1;fontSize=16;" vertex="1" parent="BlPDmiPcNX0y88MQMaHG-20">
          <mxGeometry width="120" height="79" as="geometry">
            <mxRectangle width="120" height="79" as="alternateBounds" />
          </mxGeometry>
        </mxCell>
        <mxCell id="BlPDmiPcNX0y88MQMaHG-22" value="20" style="shape=partialRectangle;html=1;whiteSpace=wrap;connectable=0;strokeColor=inherit;overflow=hidden;fillColor=none;top=0;left=0;bottom=0;right=0;pointerEvents=1;fontSize=16;" vertex="1" parent="BlPDmiPcNX0y88MQMaHG-20">
          <mxGeometry x="120" width="120" height="79" as="geometry">
            <mxRectangle width="120" height="79" as="alternateBounds" />
          </mxGeometry>
        </mxCell>
        <mxCell id="BlPDmiPcNX0y88MQMaHG-24" value="&lt;div&gt;&lt;font style=&quot;font-size: 20px;&quot;&gt;En la tabla original observamos&lt;/font&gt;&lt;/div&gt;&lt;div&gt;&lt;font style=&quot;font-size: 20px;&quot;&gt;que la tabla no está normalizada debido a&lt;/font&gt;&lt;/div&gt;&lt;div&gt;&lt;font style=&quot;font-size: 20px;&quot;&gt;que hay muchos datos desordenados.&amp;nbsp;&lt;/font&gt;&lt;/div&gt;&lt;div&gt;&lt;font style=&quot;font-size: 20px;&quot;&gt;Por lo que en la primera forma debemos normalizarla.&lt;br&gt;&lt;/font&gt;&lt;/div&gt;" style="text;html=1;align=center;verticalAlign=middle;resizable=0;points=[];autosize=1;strokeColor=none;fillColor=none;" vertex="1" parent="1">
          <mxGeometry x="274" y="131" width="504" height="108" as="geometry" />
        </mxCell>
        <mxCell id="BlPDmiPcNX0y88MQMaHG-25" value="&lt;div style=&quot;font-size: 19px;&quot;&gt;&lt;font style=&quot;font-size: 19px;&quot;&gt;Por último, la 3FN, que solo ocurre cuando la tabla&amp;nbsp;&lt;/font&gt;&lt;/div&gt;&lt;div style=&quot;font-size: 19px;&quot;&gt;&lt;font style=&quot;font-size: 19px;&quot;&gt;ha sido pasada anteriormente por 2FN. y no deben&amp;nbsp;&lt;/font&gt;&lt;/div&gt;&lt;div style=&quot;font-size: 19px;&quot;&gt;&lt;font style=&quot;font-size: 19px;&quot;&gt;y no deben existi dependencias transitivas en ella &lt;br&gt;&lt;/font&gt;&lt;/div&gt;&lt;div style=&quot;font-size: 19px;&quot;&gt;&lt;font style=&quot;font-size: 19px;&quot;&gt;Una vez aquí las dependencias funcionales deben ser respecto&amp;nbsp;&lt;/font&gt;&lt;/div&gt;&lt;div style=&quot;font-size: 19px;&quot;&gt;&lt;font style=&quot;font-size: 19px;&quot;&gt;a la clave principal&lt;/font&gt;.&lt;br&gt;&lt;/div&gt;" style="text;html=1;align=center;verticalAlign=middle;resizable=0;points=[];autosize=1;strokeColor=none;fillColor=none;" vertex="1" parent="1">
          <mxGeometry x="146" y="2376" width="564" height="132" as="geometry" />
        </mxCell>
      </root>
    </mxGraphModel>
  </diagram>
</mxfile>
